{
  "accessors": [
    {
      "bufferView": 2,
      "componentType": 5126,
      "count": 32027,
      "max": [
        0.044867999851703644,
        0.03459399938583374,
        0.21669000387191772
      ],
      "min": [
        -0.04601899906992912,
        -0.039636000990867615,
        0.005324999801814556
      ],
      "type": "VEC3"
    },
    {
      "bufferView": 2,
      "byteOffset": 384324,
      "componentType": 5126,
      "count": 32027,
      "max": [
        0.9999630451202393,
        0.9999021291732788,
        0.9999855756759644
      ],
      "min": [
        -0.9999996423721313,
        -0.9999945163726807,
        -0.9999977350234985
      ],
      "type": "VEC3"
    },
    {
      "bufferView": 3,
      "componentType": 5126,
      "count": 32027,
      "max": [
        1.0,
        0.9995810985565186,
        1.0,
        1.0
      ],
      "min": [
        -0.9999999403953552,
        -0.9999133348464966,
        -1.0,
        -1.0
      ],
      "type": "VEC4"
    },
    {
      "bufferView": 1,
      "componentType": 5126,
      "count": 32027,
      "max": [
        0.9996870160102844,
        0.9890140295028687
      ],
      "min": [
        0.00024399999529123306,
        0.00024900000425986946
      ],
      "type": "VEC2"
    },
    {
      "bufferView": 0,
      "componentType": 5125,
      "count": 149988,
      "type": "SCALAR"
    }
  ],
  "asset": {
    "extras": {
      "author": "Second Studio (https://sketchfab.com/kayaaku)",
      "license": "CC-BY-4.0 (http://creativecommons.org/licenses/by/4.0/)",
      "source": "https://sketchfab.com/3d-models/japanese-bilboquet-cup-and-ball-game-03b652b3678e4eba9fcad09145e51aa0",
      "title": "Japanese bilboquet (cup-and-ball game)"
    },
    "generator": "Sketchfab-13.56.0",
    "version": "2.0"
  },
  "bufferViews": [
    {
      "buffer": 0,
      "byteLength": 599952,
      "name": "floatBufferViews",
      "target": 34963
    },
    {
      "buffer": 0,
      "byteLength": 256216,
      "byteOffset": 599952,
      "byteStride": 8,
      "name": "floatBufferViews",
      "target": 34962
    },
    {
      "buffer": 0,
      "byteLength": 768648,
      "byteOffset": 856168,
      "byteStride": 12,
      "name": "floatBufferViews",
      "target": 34962
    },
    {
      "buffer": 0,
      "byteLength": 512432,
      "byteOffset": 1624816,
      "byteStride": 16,
      "name": "floatBufferViews",
      "target": 34962
    }
  ],
  "buffers": [
    {
      "byteLength": 2137248,
      "uri": "scene.bin"
    }
  ],
  "images": [
    {
      "uri": "textures/kendama_u1_v1_baseColor.jpeg"
    },
    {
      "uri": "textures/kendama_u1_v1_normal.png"
    }
  ],
  "materials": [
    {
      "doubleSided": true,
      "name": "kendama_u1_v1",
      "normalTexture": {
        "index": 1
      },
      "pbrMetallicRoughness": {
        "baseColorTexture": {
          "index": 0
        },
        "metallicFactor": 0.0
      }
    }
  ],
  "meshes": [
    {
      "name": "Object_0",
      "primitives": [
        {
          "attributes": {
            "NORMAL": 1,
            "POSITION": 0,
            "TANGENT": 2,
            "TEXCOORD_0": 3
          },
          "indices": 4,
          "material": 0,
          "mode": 4
        }
      ]
    }
  ],
  "nodes": [
    {
      "children": [
        1
      ],
      "matrix": [
        1.0,
        0.0,
        0.0,
        0.0,
        0.0,
        2.220446049250313e-16,
        -1.0,
        0.0,
        0.0,
        1.0,
        2.220446049250313e-16,
        0.0,
        0.0,
        0.0,
        0.0,
        1.0
      ],
      "name": "Sketchfab_model"
    },
    {
      "children": [
        2
      ],
      "name": "kendama.obj.cleaner.materialmerger.gles"
    },
    {
      "mesh": 0,
      "name": "Object_2"
    }
  ],
  "samplers": [
    {
      "magFilter": 9729,
      "minFilter": 9987,
      "wrapS": 10497,
      "wrapT": 10497
    }
  ],
  "scene": 0,
  "scenes": [
    {
      "name": "Sketchfab_Scene",
      "nodes": [
        0
      ]
    }
  ],
  "textures": [
    {
      "sampler": 0,
      "source": 0
    },
    {
      "sampler": 0,
      "source": 1
    }
  ]
}
