{
  "accessors": [
    {
      "bufferView": 2,
      "componentType": 5126,
      "count": 8235,
      "max": [
        0.08893056213855743,
        0.02201041579246521,
        0.5270119309425354
      ],
      "min": [
        -0.08893050253391266,
        -0.028751812875270844,
        4.9248337745666504e-05
      ],
      "type": "VEC3"
    },
    {
      "bufferView": 2,
      "byteOffset": 98820,
      "componentType": 5126,
      "count": 8235,
      "max": [
        1.0,
        1.0,
        1.0
      ],
      "min": [
        -1.0,
        -1.0,
        -1.0
      ],
      "type": "VEC3"
    },
    {
      "bufferView": 3,
      "componentType": 5126,
      "count": 8235,
      "max": [
        1.0,
        1.0,
        1.0,
        1.0
      ],
      "min": [
        -1.0,
        -1.0,
        -1.0,
        -1.0
      ],
      "type": "VEC4"
    },
    {
      "bufferView": 1,
      "componentType": 5126,
      "count": 8235,
      "max": [
        0.9926091432571411,
        0.9968271255493164
      ],
      "min": [
        0.009843051433563232,
        0.010984163731336594
      ],
      "type": "VEC2"
    },
    {
      "bufferView": 1,
      "byteOffset": 65880,
      "componentType": 5126,
      "count": 8235,
      "max": [
        0.9926091432571411,
        0.9968271255493164
      ],
      "min": [
        0.009843051433563232,
        0.010984163731336594
      ],
      "type": "VEC2"
    },
    {
      "bufferView": 1,
      "byteOffset": 131760,
      "componentType": 5126,
      "count": 8235,
      "max": [
        0.9926091432571411,
        0.9968271255493164
      ],
      "min": [
        0.009843051433563232,
        0.010984163731336594
      ],
      "type": "VEC2"
    },
    {
      "bufferView": 0,
      "componentType": 5125,
      "count": 26736,
      "type": "SCALAR"
    }
  ],
  "asset": {
    "extras": {
      "author": "mohamedhussien (https://sketchfab.com/mohamedhussien)",
      "license": "CC-BY-4.0 (http://creativecommons.org/licenses/by/4.0/)",
      "source": "https://sketchfab.com/3d-models/ukulele-01-4k-720691a67b8b412c833a88d2384bb912",
      "title": "Ukulele_01_4k"
    },
    "generator": "Sketchfab-12.56.0",
    "version": "2.0"
  },
  "bufferViews": [
    {
      "buffer": 0,
      "byteLength": 106944,
      "name": "floatBufferViews",
      "target": 34963
    },
    {
      "buffer": 0,
      "byteLength": 197640,
      "byteOffset": 106944,
      "byteStride": 8,
      "name": "floatBufferViews",
      "target": 34962
    },
    {
      "buffer": 0,
      "byteLength": 197640,
      "byteOffset": 304584,
      "byteStride": 12,
      "name": "floatBufferViews",
      "target": 34962
    },
    {
      "buffer": 0,
      "byteLength": 131760,
      "byteOffset": 502224,
      "byteStride": 16,
      "name": "floatBufferViews",
      "target": 34962
    }
  ],
  "buffers": [
    {
      "byteLength": 633984,
      "uri": "scene.bin"
    }
  ],
  "images": [
    {
      "uri": "textures/Ukulele_01_baseColor.jpeg"
    },
    {
      "uri": "textures/Ukulele_01_metallicRoughness.png"
    },
    {
      "uri": "textures/Ukulele_01_normal.png"
    }
  ],
  "materials": [
    {
      "doubleSided": true,
      "name": "Ukulele_01",
      "normalTexture": {
        "index": 2
      },
      "pbrMetallicRoughness": {
        "baseColorTexture": {
          "index": 0
        },
        "metallicRoughnessTexture": {
          "index": 1
        }
      }
    }
  ],
  "meshes": [
    {
      "name": "Ukulele_01_Ukulele_01_0",
      "primitives": [
        {
          "attributes": {
            "NORMAL": 1,
            "POSITION": 0,
            "TANGENT": 2,
            "TEXCOORD_0": 3,
            "TEXCOORD_1": 4,
            "TEXCOORD_2": 5
          },
          "indices": 6,
          "material": 0,
          "mode": 4
        }
      ]
    }
  ],
  "nodes": [
    {
      "children": [
        1
      ],
      "matrix": [
        1.0,
        0.0,
        0.0,
        0.0,
        0.0,
        2.220446049250313e-16,
        -1.0,
        0.0,
        0.0,
        1.0,
        2.220446049250313e-16,
        0.0,
        0.0,
        0.0,
        0.0,
        1.0
      ],
      "name": "Sketchfab_model"
    },
    {
      "children": [
        2
      ],
      "matrix": [
        0.009999999776482582,
        0.0,
        0.0,
        0.0,
        0.0,
        0.0,
        0.009999999776482582,
        0.0,
        0.0,
        -0.009999999776482582,
        0.0,
        0.0,
        0.0,
        0.0,
        0.0,
        1.0
      ],
      "name": "Ukulele_01_4k.fbx"
    },
    {
      "children": [
        3
      ],
      "name": "RootNode"
    },
    {
      "children": [
        4
      ],
      "matrix": [
        100.0,
        0.0,
        0.0,
        0.0,
        0.0,
        -1.629206793918314e-05,
        -99.99999999999868,
        0.0,
        0.0,
        99.99999999999868,
        -1.629206793918314e-05,
        0.0,
        0.0,
        0.0,
        0.0,
        1.0
      ],
      "name": "Ukulele_01"
    },
    {
      "mesh": 0,
      "name": "Ukulele_01_Ukulele_01_0"
    }
  ],
  "samplers": [
    {
      "magFilter": 9729,
      "minFilter": 9987,
      "wrapS": 10497,
      "wrapT": 10497
    }
  ],
  "scene": 0,
  "scenes": [
    {
      "name": "Sketchfab_Scene",
      "nodes": [
        0
      ]
    }
  ],
  "textures": [
    {
      "sampler": 0,
      "source": 0
    },
    {
      "sampler": 0,
      "source": 1
    },
    {
      "sampler": 0,
      "source": 2
    }
  ]
}
