{
  "accessors": [
    {
      "bufferView": 2,
      "componentType": 5126,
      "count": 48,
      "max": [
        1.0,
        1.1132838726043701,
        1.0
      ],
      "min": [
        -1.0,
        -1.0,
        -23.904542922973633
      ],
      "type": "VEC3"
    },
    {
      "bufferView": 2,
      "byteOffset": 576,
      "componentType": 5126,
      "count": 48,
      "max": [
        1.0,
        1.0,
        1.0
      ],
      "min": [
        -1.0,
        -1.0,
        -1.0
      ],
      "type": "VEC3"
    },
    {
      "bufferView": 1,
      "componentType": 5126,
      "count": 48,
      "max": [
        0.875,
        1.0
      ],
      "min": [
        0.125,
        0.0
      ],
      "type": "VEC2"
    },
    {
      "bufferView": 0,
      "componentType": 5125,
      "count": 72,
      "type": "SCALAR"
    },
    {
      "bufferView": 2,
      "byteOffset": 1152,
      "componentType": 5126,
      "count": 24,
      "max": [
        1.0,
        1.0,
        1.0
      ],
      "min": [
        -1.0,
        -1.0,
        -1.0
      ],
      "type": "VEC3"
    },
    {
      "bufferView": 2,
      "byteOffset": 1440,
      "componentType": 5126,
      "count": 24,
      "max": [
        1.0,
        1.0,
        1.0
      ],
      "min": [
        -1.0,
        -1.0,
        -1.0
      ],
      "type": "VEC3"
    },
    {
      "bufferView": 1,
      "byteOffset": 384,
      "componentType": 5126,
      "count": 24,
      "max": [
        0.875,
        1.0
      ],
      "min": [
        0.125,
        0.0
      ],
      "type": "VEC2"
    },
    {
      "bufferView": 0,
      "byteOffset": 288,
      "componentType": 5125,
      "count": 36,
      "type": "SCALAR"
    },
    {
      "bufferView": 2,
      "byteOffset": 1728,
      "componentType": 5126,
      "count": 24,
      "max": [
        1.0,
        1.0,
        1.0
      ],
      "min": [
        -1.0,
        -1.0,
        -1.0
      ],
      "type": "VEC3"
    },
    {
      "bufferView": 2,
      "byteOffset": 2016,
      "componentType": 5126,
      "count": 24,
      "max": [
        1.0,
        1.0,
        1.0
      ],
      "min": [
        -1.0,
        -1.0,
        -1.0
      ],
      "type": "VEC3"
    },
    {
      "bufferView": 1,
      "byteOffset": 576,
      "componentType": 5126,
      "count": 24,
      "max": [
        0.875,
        1.0
      ],
      "min": [
        0.125,
        0.0
      ],
      "type": "VEC2"
    },
    {
      "bufferView": 0,
      "byteOffset": 432,
      "componentType": 5125,
      "count": 36,
      "type": "SCALAR"
    },
    {
      "bufferView": 2,
      "byteOffset": 2304,
      "componentType": 5126,
      "count": 24,
      "max": [
        1.0,
        1.0,
        1.0
      ],
      "min": [
        -1.0,
        -1.0,
        -1.0
      ],
      "type": "VEC3"
    },
    {
      "bufferView": 2,
      "byteOffset": 2592,
      "componentType": 5126,
      "count": 24,
      "max": [
        1.0,
        1.0,
        1.0
      ],
      "min": [
        -1.0,
        -1.0,
        -1.0
      ],
      "type": "VEC3"
    },
    {
      "bufferView": 1,
      "byteOffset": 768,
      "componentType": 5126,
      "count": 24,
      "max": [
        0.875,
        1.0
      ],
      "min": [
        0.125,
        0.0
      ],
      "type": "VEC2"
    },
    {
      "bufferView": 0,
      "byteOffset": 576,
      "componentType": 5125,
      "count": 36,
      "type": "SCALAR"
    },
    {
      "bufferView": 2,
      "byteOffset": 2880,
      "componentType": 5126,
      "count": 24,
      "max": [
        1.0,
        1.0,
        1.0
      ],
      "min": [
        -1.0,
        -1.0,
        -1.0
      ],
      "type": "VEC3"
    },
    {
      "bufferView": 2,
      "byteOffset": 3168,
      "componentType": 5126,
      "count": 24,
      "max": [
        1.0,
        1.0,
        1.0
      ],
      "min": [
        -1.0,
        -1.0,
        -1.0
      ],
      "type": "VEC3"
    },
    {
      "bufferView": 1,
      "byteOffset": 960,
      "componentType": 5126,
      "count": 24,
      "max": [
        0.875,
        1.0
      ],
      "min": [
        0.125,
        0.0
      ],
      "type": "VEC2"
    },
    {
      "bufferView": 0,
      "byteOffset": 720,
      "componentType": 5125,
      "count": 36,
      "type": "SCALAR"
    },
    {
      "bufferView": 2,
      "byteOffset": 3456,
      "componentType": 5126,
      "count": 24,
      "max": [
        1.0,
        1.0,
        1.0
      ],
      "min": [
        -1.0,
        -1.0,
        -1.0
      ],
      "type": "VEC3"
    },
    {
      "bufferView": 2,
      "byteOffset": 3744,
      "componentType": 5126,
      "count": 24,
      "max": [
        1.0,
        1.0,
        1.0
      ],
      "min": [
        -1.0,
        -1.0,
        -1.0
      ],
      "type": "VEC3"
    },
    {
      "bufferView": 1,
      "byteOffset": 1152,
      "componentType": 5126,
      "count": 24,
      "max": [
        0.875,
        1.0
      ],
      "min": [
        0.125,
        0.0
      ],
      "type": "VEC2"
    },
    {
      "bufferView": 0,
      "byteOffset": 864,
      "componentType": 5125,
      "count": 36,
      "type": "SCALAR"
    },
    {
      "bufferView": 2,
      "byteOffset": 4032,
      "componentType": 5126,
      "count": 24,
      "max": [
        1.0,
        1.0,
        1.0
      ],
      "min": [
        -1.0,
        -1.0,
        -1.0
      ],
      "type": "VEC3"
    },
    {
      "bufferView": 2,
      "byteOffset": 4320,
      "componentType": 5126,
      "count": 24,
      "max": [
        1.0,
        1.0,
        1.0
      ],
      "min": [
        -1.0,
        -1.0,
        -1.0
      ],
      "type": "VEC3"
    },
    {
      "bufferView": 1,
      "byteOffset": 1344,
      "componentType": 5126,
      "count": 24,
      "max": [
        0.875,
        1.0
      ],
      "min": [
        0.125,
        0.0
      ],
      "type": "VEC2"
    },
    {
      "bufferView": 0,
      "byteOffset": 1008,
      "componentType": 5125,
      "count": 36,
      "type": "SCALAR"
    },
    {
      "bufferView": 2,
      "byteOffset": 4608,
      "componentType": 5126,
      "count": 24,
      "max": [
        1.0,
        0.9999990463256836,
        1.0
      ],
      "min": [
        -1.0,
        -1.0000009536743164,
        -1.0
      ],
      "type": "VEC3"
    },
    {
      "bufferView": 2,
      "byteOffset": 4896,
      "componentType": 5126,
      "count": 24,
      "max": [
        1.0,
        1.0,
        1.0
      ],
      "min": [
        -1.0,
        -1.0,
        -1.0
      ],
      "type": "VEC3"
    },
    {
      "bufferView": 1,
      "byteOffset": 1536,
      "componentType": 5126,
      "count": 24,
      "max": [
        0.875,
        1.0
      ],
      "min": [
        0.125,
        0.0
      ],
      "type": "VEC2"
    },
    {
      "bufferView": 0,
      "byteOffset": 1152,
      "componentType": 5125,
      "count": 36,
      "type": "SCALAR"
    },
    {
      "bufferView": 2,
      "byteOffset": 5184,
      "componentType": 5126,
      "count": 24,
      "max": [
        1.0,
        0.9999990463256836,
        1.0
      ],
      "min": [
        -1.0,
        -1.0000009536743164,
        -1.0
      ],
      "type": "VEC3"
    },
    {
      "bufferView": 2,
      "byteOffset": 5472,
      "componentType": 5126,
      "count": 24,
      "max": [
        1.0,
        1.0,
        1.0
      ],
      "min": [
        -1.0,
        -1.0,
        -1.0
      ],
      "type": "VEC3"
    },
    {
      "bufferView": 1,
      "byteOffset": 1728,
      "componentType": 5126,
      "count": 24,
      "max": [
        0.875,
        1.0
      ],
      "min": [
        0.125,
        0.0
      ],
      "type": "VEC2"
    },
    {
      "bufferView": 0,
      "byteOffset": 1296,
      "componentType": 5125,
      "count": 36,
      "type": "SCALAR"
    },
    {
      "bufferView": 2,
      "byteOffset": 5760,
      "componentType": 5126,
      "count": 3968,
      "max": [
        1.000000238418579,
        1.0,
        1.0000003576278687
      ],
      "min": [
        -0.9999999403953552,
        -1.0,
        -29.124370574951172
      ],
      "type": "VEC3"
    },
    {
      "bufferView": 2,
      "byteOffset": 53376,
      "componentType": 5126,
      "count": 3968,
      "max": [
        0.9904383420944214,
        0.9951384663581848,
        0.9904389381408691
      ],
      "min": [
        -0.9904382824897766,
        -0.9951384663581848,
        -0.9904388785362244
      ],
      "type": "VEC3"
    },
    {
      "bufferView": 1,
      "byteOffset": 1920,
      "componentType": 5126,
      "count": 3968,
      "max": [
        1.000000238418579,
        1.0
      ],
      "min": [
        0.0,
        0.0
      ],
      "type": "VEC2"
    },
    {
      "bufferView": 0,
      "byteOffset": 1440,
      "componentType": 5125,
      "count": 5760,
      "type": "SCALAR"
    },
    {
      "bufferView": 2,
      "byteOffset": 100992,
      "componentType": 5126,
      "count": 3968,
      "max": [
        1.0000003576278687,
        1.0000001192092896,
        1.0000003576278687
      ],
      "min": [
        -0.9999998211860657,
        -1.0000001192092896,
        -25.805477142333984
      ],
      "type": "VEC3"
    },
    {
      "bufferView": 2,
      "byteOffset": 148608,
      "componentType": 5126,
      "count": 3968,
      "max": [
        0.9904383420944214,
        0.9951384663581848,
        0.9904382824897766
      ],
      "min": [
        -0.9904382824897766,
        -0.9951384663581848,
        -0.9904388785362244
      ],
      "type": "VEC3"
    },
    {
      "bufferView": 1,
      "byteOffset": 33664,
      "componentType": 5126,
      "count": 3968,
      "max": [
        1.000000238418579,
        1.0
      ],
      "min": [
        0.0,
        0.0
      ],
      "type": "VEC2"
    },
    {
      "bufferView": 0,
      "byteOffset": 24480,
      "componentType": 5125,
      "count": 5760,
      "type": "SCALAR"
    },
    {
      "bufferView": 2,
      "byteOffset": 196224,
      "componentType": 5126,
      "count": 3968,
      "max": [
        1.0000003576278687,
        1.0,
        1.0000003576278687
      ],
      "min": [
        -0.9999998211860657,
        -1.0,
        -24.563695907592773
      ],
      "type": "VEC3"
    },
    {
      "bufferView": 2,
      "byteOffset": 243840,
      "componentType": 5126,
      "count": 3968,
      "max": [
        0.9904383420944214,
        0.9951384663581848,
        0.9904382824897766
      ],
      "min": [
        -0.9904382824897766,
        -0.9951384663581848,
        -0.9904388785362244
      ],
      "type": "VEC3"
    },
    {
      "bufferView": 1,
      "byteOffset": 65408,
      "componentType": 5126,
      "count": 3968,
      "max": [
        1.000000238418579,
        1.0
      ],
      "min": [
        0.0,
        0.0
      ],
      "type": "VEC2"
    },
    {
      "bufferView": 0,
      "byteOffset": 47520,
      "componentType": 5125,
      "count": 5760,
      "type": "SCALAR"
    },
    {
      "bufferView": 2,
      "byteOffset": 291456,
      "componentType": 5126,
      "count": 3968,
      "max": [
        1.0000003576278687,
        1.0,
        1.0000003576278687
      ],
      "min": [
        -0.9999998211860657,
        -1.0,
        -22.77375030517578
      ],
      "type": "VEC3"
    },
    {
      "bufferView": 2,
      "byteOffset": 339072,
      "componentType": 5126,
      "count": 3968,
      "max": [
        0.9904383420944214,
        0.9951384663581848,
        0.9904382824897766
      ],
      "min": [
        -0.9904382824897766,
        -0.9951384663581848,
        -0.9904388785362244
      ],
      "type": "VEC3"
    },
    {
      "bufferView": 1,
      "byteOffset": 97152,
      "componentType": 5126,
      "count": 3968,
      "max": [
        1.000000238418579,
        1.0
      ],
      "min": [
        0.0,
        0.0
      ],
      "type": "VEC2"
    },
    {
      "bufferView": 0,
      "byteOffset": 70560,
      "componentType": 5125,
      "count": 5760,
      "type": "SCALAR"
    },
    {
      "bufferView": 2,
      "byteOffset": 386688,
      "componentType": 5126,
      "count": 3968,
      "max": [
        1.000000238418579,
        1.0,
        1.0000003576278687
      ],
      "min": [
        -0.9999998211860657,
        -1.0,
        -21.07025146484375
      ],
      "type": "VEC3"
    },
    {
      "bufferView": 2,
      "byteOffset": 434304,
      "componentType": 5126,
      "count": 3968,
      "max": [
        0.9904383420944214,
        0.9951384663581848,
        0.9904382824897766
      ],
      "min": [
        -0.9904382824897766,
        -0.9951384663581848,
        -0.9904388785362244
      ],
      "type": "VEC3"
    },
    {
      "bufferView": 1,
      "byteOffset": 128896,
      "componentType": 5126,
      "count": 3968,
      "max": [
        1.000000238418579,
        1.0
      ],
      "min": [
        0.0,
        0.0
      ],
      "type": "VEC2"
    },
    {
      "bufferView": 0,
      "byteOffset": 93600,
      "componentType": 5125,
      "count": 5760,
      "type": "SCALAR"
    },
    {
      "bufferView": 2,
      "byteOffset": 481920,
      "componentType": 5126,
      "count": 3968,
      "max": [
        1.000000238418579,
        1.0,
        1.0000003576278687
      ],
      "min": [
        -0.9999998211860657,
        -1.0,
        -19.9586238861084
      ],
      "type": "VEC3"
    },
    {
      "bufferView": 2,
      "byteOffset": 529536,
      "componentType": 5126,
      "count": 3968,
      "max": [
        0.9904383420944214,
        0.9951384663581848,
        0.9904382824897766
      ],
      "min": [
        -0.9904382824897766,
        -0.9951384663581848,
        -0.9904388189315796
      ],
      "type": "VEC3"
    },
    {
      "bufferView": 1,
      "byteOffset": 160640,
      "componentType": 5126,
      "count": 3968,
      "max": [
        1.000000238418579,
        1.0
      ],
      "min": [
        0.0,
        0.0
      ],
      "type": "VEC2"
    },
    {
      "bufferView": 0,
      "byteOffset": 116640,
      "componentType": 5125,
      "count": 5760,
      "type": "SCALAR"
    },
    {
      "bufferView": 2,
      "byteOffset": 577152,
      "componentType": 5126,
      "count": 3968,
      "max": [
        1.000000238418579,
        1.0,
        1.0000003576278687
      ],
      "min": [
        -0.9999998211860657,
        -1.0,
        -18.079837799072266
      ],
      "type": "VEC3"
    },
    {
      "bufferView": 2,
      "byteOffset": 624768,
      "componentType": 5126,
      "count": 3968,
      "max": [
        0.9904383420944214,
        0.9951384663581848,
        0.9904382824897766
      ],
      "min": [
        -0.9904382824897766,
        -0.9951384663581848,
        -0.9904388785362244
      ],
      "type": "VEC3"
    },
    {
      "bufferView": 1,
      "byteOffset": 192384,
      "componentType": 5126,
      "count": 3968,
      "max": [
        1.000000238418579,
        1.0
      ],
      "min": [
        0.0,
        0.0
      ],
      "type": "VEC2"
    },
    {
      "bufferView": 0,
      "byteOffset": 139680,
      "componentType": 5125,
      "count": 5760,
      "type": "SCALAR"
    },
    {
      "bufferView": 2,
      "byteOffset": 672384,
      "componentType": 5126,
      "count": 3968,
      "max": [
        1.000000238418579,
        1.0,
        1.0000003576278687
      ],
      "min": [
        -0.9999998211860657,
        -1.0,
        -15.855207443237305
      ],
      "type": "VEC3"
    },
    {
      "bufferView": 2,
      "byteOffset": 720000,
      "componentType": 5126,
      "count": 3968,
      "max": [
        0.9904383420944214,
        0.9951384663581848,
        0.9904384613037109
      ],
      "min": [
        -0.9904382824897766,
        -0.9951384663581848,
        -0.9904384613037109
      ],
      "type": "VEC3"
    },
    {
      "bufferView": 1,
      "byteOffset": 224128,
      "componentType": 5126,
      "count": 3968,
      "max": [
        1.000000238418579,
        1.0
      ],
      "min": [
        0.0,
        0.0
      ],
      "type": "VEC2"
    },
    {
      "bufferView": 0,
      "byteOffset": 162720,
      "componentType": 5125,
      "count": 5760,
      "type": "SCALAR"
    }
  ],
  "asset": {
    "extras": {
      "author": "pamruta (https://sketchfab.com/pamruta)",
      "license": "CC-BY-4.0 (http://creativecommons.org/licenses/by/4.0/)",
      "source": "https://sketchfab.com/3d-models/kids-xylophone-b9c057311d0c44eab7a4556eccdba708",
      "title": "Kid's Xylophone"
    },
    "generator": "Sketchfab-12.68.0",
    "version": "2.0"
  },
  "bufferViews": [
    {
      "buffer": 0,
      "byteLength": 185760,
      "name": "floatBufferViews",
      "target": 34963
    },
    {
      "buffer": 0,
      "byteLength": 255872,
      "byteOffset": 185760,
      "byteStride": 8,
      "name": "floatBufferViews",
      "target": 34962
    },
    {
      "buffer": 0,
      "byteLength": 767616,
      "byteOffset": 441632,
      "byteStride": 12,
      "name": "floatBufferViews",
      "target": 34962
    }
  ],
  "buffers": [
    {
      "byteLength": 1209248,
      "uri": "scene.bin"
    }
  ],
  "materials": [
    {
      "doubleSided": true,
      "name": "Material",
      "pbrMetallicRoughness": {
        "baseColorFactor": [
          0.816609,
          0.776076,
          0.744727,
          1.0
        ],
        "metallicFactor": 0.0,
        "roughnessFactor": 0.4
      }
    },
    {
      "doubleSided": true,
      "name": "Material.002",
      "pbrMetallicRoughness": {
        "baseColorFactor": [
          0.8,
          0.0426989,
          0.104269,
          1.0
        ],
        "metallicFactor": 0.0,
        "roughnessFactor": 0.5
      }
    },
    {
      "doubleSided": true,
      "name": "Material.003",
      "pbrMetallicRoughness": {
        "baseColorFactor": [
          0.763898,
          0.325041,
          0.0356695,
          1.0
        ],
        "metallicFactor": 0.0,
        "roughnessFactor": 0.5
      }
    },
    {
      "doubleSided": true,
      "name": "Material.004",
      "pbrMetallicRoughness": {
        "baseColorFactor": [
          0.8,
          0.64603,
          0.0514045,
          1.0
        ],
        "metallicFactor": 0.0,
        "roughnessFactor": 0.5
      }
    },
    {
      "doubleSided": true,
      "name": "Material.005",
      "pbrMetallicRoughness": {
        "baseColorFactor": [
          0.178727,
          0.8,
          0.0819603,
          1.0
        ],
        "metallicFactor": 0.0,
        "roughnessFactor": 0.5
      }
    },
    {
      "doubleSided": true,
      "name": "Material.006",
      "pbrMetallicRoughness": {
        "baseColorFactor": [
          0.0678915,
          0.732554,
          0.8,
          1.0
        ],
        "metallicFactor": 0.0,
        "roughnessFactor": 0.5
      }
    },
    {
      "doubleSided": true,
      "name": "Material.007",
      "pbrMetallicRoughness": {
        "baseColorFactor": [
          0.102167,
          0.288072,
          0.8,
          1.0
        ],
        "metallicFactor": 0.0,
        "roughnessFactor": 0.5
      }
    },
    {
      "doubleSided": true,
      "name": "Material.008",
      "pbrMetallicRoughness": {
        "baseColorFactor": [
          0.0248995,
          0.103594,
          0.8,
          1.0
        ],
        "metallicFactor": 0.0,
        "roughnessFactor": 0.5
      }
    },
    {
      "doubleSided": true,
      "name": "Material.001",
      "pbrMetallicRoughness": {
        "baseColorFactor": [
          0.34584,
          0.108023,
          0.8,
          1.0
        ],
        "metallicFactor": 0.0,
        "roughnessFactor": 0.5
      }
    },
    {
      "doubleSided": true,
      "name": "buttons",
      "pbrMetallicRoughness": {
        "baseColorFactor": [
          0.317725,
          0.361497,
          0.168942,
          1.0
        ],
        "metallicFactor": 0.0,
        "roughnessFactor": 0.5
      }
    }
  ],
  "meshes": [
    {
      "name": "Object_0",
      "primitives": [
        {
          "attributes": {
            "NORMAL": 1,
            "POSITION": 0,
            "TEXCOORD_0": 2
          },
          "indices": 3,
          "material": 0,
          "mode": 4
        }
      ]
    },
    {
      "name": "Object_1",
      "primitives": [
        {
          "attributes": {
            "NORMAL": 5,
            "POSITION": 4,
            "TEXCOORD_0": 6
          },
          "indices": 7,
          "material": 1,
          "mode": 4
        }
      ]
    },
    {
      "name": "Object_2",
      "primitives": [
        {
          "attributes": {
            "NORMAL": 9,
            "POSITION": 8,
            "TEXCOORD_0": 10
          },
          "indices": 11,
          "material": 2,
          "mode": 4
        }
      ]
    },
    {
      "name": "Object_3",
      "primitives": [
        {
          "attributes": {
            "NORMAL": 13,
            "POSITION": 12,
            "TEXCOORD_0": 14
          },
          "indices": 15,
          "material": 3,
          "mode": 4
        }
      ]
    },
    {
      "name": "Object_4",
      "primitives": [
        {
          "attributes": {
            "NORMAL": 17,
            "POSITION": 16,
            "TEXCOORD_0": 18
          },
          "indices": 19,
          "material": 4,
          "mode": 4
        }
      ]
    },
    {
      "name": "Object_5",
      "primitives": [
        {
          "attributes": {
            "NORMAL": 21,
            "POSITION": 20,
            "TEXCOORD_0": 22
          },
          "indices": 23,
          "material": 5,
          "mode": 4
        }
      ]
    },
    {
      "name": "Object_6",
      "primitives": [
        {
          "attributes": {
            "NORMAL": 25,
            "POSITION": 24,
            "TEXCOORD_0": 26
          },
          "indices": 27,
          "material": 6,
          "mode": 4
        }
      ]
    },
    {
      "name": "Object_7",
      "primitives": [
        {
          "attributes": {
            "NORMAL": 29,
            "POSITION": 28,
            "TEXCOORD_0": 30
          },
          "indices": 31,
          "material": 7,
          "mode": 4
        }
      ]
    },
    {
      "name": "Object_8",
      "primitives": [
        {
          "attributes": {
            "NORMAL": 33,
            "POSITION": 32,
            "TEXCOORD_0": 34
          },
          "indices": 35,
          "material": 8,
          "mode": 4
        }
      ]
    },
    {
      "name": "Object_9",
      "primitives": [
        {
          "attributes": {
            "NORMAL": 37,
            "POSITION": 36,
            "TEXCOORD_0": 38
          },
          "indices": 39,
          "material": 9,
          "mode": 4
        }
      ]
    },
    {
      "name": "Object_10",
      "primitives": [
        {
          "attributes": {
            "NORMAL": 41,
            "POSITION": 40,
            "TEXCOORD_0": 42
          },
          "indices": 43,
          "material": 9,
          "mode": 4
        }
      ]
    },
    {
      "name": "Object_11",
      "primitives": [
        {
          "attributes": {
            "NORMAL": 45,
            "POSITION": 44,
            "TEXCOORD_0": 46
          },
          "indices": 47,
          "material": 9,
          "mode": 4
        }
      ]
    },
    {
      "name": "Object_12",
      "primitives": [
        {
          "attributes": {
            "NORMAL": 49,
            "POSITION": 48,
            "TEXCOORD_0": 50
          },
          "indices": 51,
          "material": 9,
          "mode": 4
        }
      ]
    },
    {
      "name": "Object_13",
      "primitives": [
        {
          "attributes": {
            "NORMAL": 53,
            "POSITION": 52,
            "TEXCOORD_0": 54
          },
          "indices": 55,
          "material": 9,
          "mode": 4
        }
      ]
    },
    {
      "name": "Object_14",
      "primitives": [
        {
          "attributes": {
            "NORMAL": 57,
            "POSITION": 56,
            "TEXCOORD_0": 58
          },
          "indices": 59,
          "material": 9,
          "mode": 4
        }
      ]
    },
    {
      "name": "Object_15",
      "primitives": [
        {
          "attributes": {
            "NORMAL": 61,
            "POSITION": 60,
            "TEXCOORD_0": 62
          },
          "indices": 63,
          "material": 9,
          "mode": 4
        }
      ]
    },
    {
      "name": "Object_16",
      "primitives": [
        {
          "attributes": {
            "NORMAL": 65,
            "POSITION": 64,
            "TEXCOORD_0": 66
          },
          "indices": 67,
          "material": 9,
          "mode": 4
        }
      ]
    }
  ],
  "nodes": [
    {
      "children": [
        1
      ],
      "matrix": [
        1.0,
        0.0,
        0.0,
        0.0,
        0.0,
        2.220446049250313e-16,
        -1.0,
        0.0,
        0.0,
        1.0,
        2.220446049250313e-16,
        0.0,
        0.0,
        0.0,
        0.0,
        1.0
      ],
      "name": "Sketchfab_model"
    },
    {
      "children": [
        2
      ],
      "name": "root"
    },
    {
      "children": [
        3,
        5,
        7,
        9,
        11,
        13,
        15,
        17,
        19,
        21,
        23,
        25,
        27,
        29,
        31,
        33,
        35
      ],
      "matrix": [
        1.0,
        0.0,
        0.0,
        0.0,
        0.0,
        2.220446049250313e-16,
        1.0,
        0.0,
        0.0,
        -1.0,
        2.220446049250313e-16,
        0.0,
        0.0,
        0.0,
        0.0,
        1.0
      ],
      "name": "GLTF_SceneRootNode"
    },
    {
      "children": [
        4
      ],
      "matrix": [
        0.5372597575187683,
        0.0,
        0.0,
        0.0,
        -0.0,
        5.794281508511289,
        -0.778908088975507,
        0.0,
        0.0,
        0.04287531352342193,
        0.3189485894890991,
        0.0,
        0.0,
        0.19507816433906555,
        2.9455478191375732,
        1.0
      ],
      "name": "Cube_0"
    },
    {
      "mesh": 0,
      "name": "Object_4"
    },
    {
      "children": [
        6
      ],
      "matrix": [
        0.25634142756462097,
        0.0,
        0.0,
        0.0,
        0.0,
        0.6062781810760498,
        0.0,
        0.0,
        0.0,
        0.0,
        3.5919189453125,
        0.0,
        0.5761098265647888,
        -4.482306480407715,
        -0.05090613663196564,
        1.0
      ],
      "name": "Cube.001_4"
    },
    {
      "mesh": 1,
      "name": "Object_6"
    },
    {
      "children": [
        8
      ],
      "matrix": [
        0.25634142756462097,
        0.0,
        0.0,
        0.0,
        0.0,
        0.6062781810760498,
        0.0,
        0.0,
        0.0,
        0.0,
        3.2603342533111572,
        0.0,
        0.5737044811248779,
        -3.08786678314209,
        -0.05090613663196564,
        1.0
      ],
      "name": "Cube.002_5"
    },
    {
      "mesh": 2,
      "name": "Object_8"
    },
    {
      "children": [
        10
      ],
      "matrix": [
        0.25634142756462097,
        0.0,
        0.0,
        0.0,
        0.0,
        0.6062781810760498,
        0.0,
        0.0,
        0.0,
        0.0,
        3.0636847019195557,
        0.0,
        0.5761098265647888,
        -1.6934268474578857,
        -0.05090613663196564,
        1.0
      ],
      "name": "Cube.003_6"
    },
    {
      "mesh": 3,
      "name": "Object_10"
    },
    {
      "children": [
        12
      ],
      "matrix": [
        0.25634142756462097,
        0.0,
        0.0,
        0.0,
        0.0,
        0.6062781810760498,
        0.0,
        0.0,
        0.0,
        0.0,
        2.8815317153930664,
        0.0,
        0.5761098265647888,
        -0.29898738861083984,
        -0.05090613663196564,
        1.0
      ],
      "name": "Cube.004_7"
    },
    {
      "mesh": 4,
      "name": "Object_12"
    },
    {
      "children": [
        14
      ],
      "matrix": [
        0.25634142756462097,
        0.0,
        0.0,
        0.0,
        0.0,
        0.6062781810760498,
        0.0,
        0.0,
        0.0,
        0.0,
        2.6972546577453613,
        0.0,
        0.5761098265647888,
        1.0954527854919434,
        -0.05090613663196564,
        1.0
      ],
      "name": "Cube.005_8"
    },
    {
      "mesh": 5,
      "name": "Object_14"
    },
    {
      "children": [
        16
      ],
      "matrix": [
        0.25634142756462097,
        0.0,
        0.0,
        0.0,
        0.0,
        0.6062781810760498,
        0.0,
        0.0,
        0.0,
        0.0,
        2.5091476440429688,
        0.0,
        0.5761098265647888,
        2.4898924827575684,
        -0.05090613663196564,
        1.0
      ],
      "name": "Cube.006_9"
    },
    {
      "mesh": 6,
      "name": "Object_16"
    },
    {
      "children": [
        18
      ],
      "matrix": [
        0.25634142756462097,
        0.0,
        0.0,
        0.0,
        0.0,
        0.6062781810760498,
        0.0,
        0.0,
        0.0,
        0.0,
        2.3128671646118164,
        0.0,
        0.5761098265647888,
        3.8843326568603516,
        -0.05090613663196564,
        1.0
      ],
      "name": "Cube.007_10"
    },
    {
      "mesh": 7,
      "name": "Object_18"
    },
    {
      "children": [
        20
      ],
      "matrix": [
        0.25634142756462097,
        0.0,
        0.0,
        0.0,
        0.0,
        0.6062781810760498,
        0.0,
        0.0,
        0.0,
        0.0,
        2.1307880878448486,
        0.0,
        0.5817034244537354,
        5.286057949066162,
        -0.0361219197511673,
        1.0
      ],
      "name": "Cube.008_11"
    },
    {
      "mesh": 8,
      "name": "Object_20"
    },
    {
      "children": [
        22
      ],
      "matrix": [
        0.18687765300273895,
        0.0,
        0.0,
        0.0,
        0.0,
        0.25936204195022583,
        0.0,
        0.0,
        0.0,
        0.0,
        0.23076140880584717,
        0.0,
        0.8769347667694092,
        -4.4989447593688965,
        3.194103240966797,
        1.0
      ],
      "name": "Sphere_12"
    },
    {
      "mesh": 9,
      "name": "Object_22"
    },
    {
      "children": [
        24
      ],
      "matrix": [
        0.18687765300273895,
        0.0,
        0.0,
        0.0,
        0.0,
        0.25936204195022583,
        0.0,
        0.0,
        0.0,
        0.0,
        0.23076140880584717,
        0.0,
        0.8510255217552185,
        -3.112718343734741,
        2.8111672401428223,
        1.0
      ],
      "name": "Sphere.001_13"
    },
    {
      "mesh": 10,
      "name": "Object_24"
    },
    {
      "children": [
        26
      ],
      "matrix": [
        0.18687765300273895,
        0.0,
        0.0,
        0.0,
        0.0,
        0.25936204195022583,
        0.0,
        0.0,
        0.0,
        0.0,
        0.23076140880584717,
        0.0,
        0.8570314645767212,
        -1.702648639678955,
        2.6678898334503174,
        1.0
      ],
      "name": "Sphere.002_14"
    },
    {
      "mesh": 11,
      "name": "Object_26"
    },
    {
      "children": [
        28
      ],
      "matrix": [
        0.18687765300273895,
        0.0,
        0.0,
        0.0,
        0.0,
        0.25936204195022583,
        0.0,
        0.0,
        0.0,
        0.0,
        0.23076140880584717,
        0.0,
        0.8153921365737915,
        -0.28010621666908264,
        2.461364507675171,
        1.0
      ],
      "name": "Sphere.003_15"
    },
    {
      "mesh": 12,
      "name": "Object_28"
    },
    {
      "children": [
        30
      ],
      "matrix": [
        0.18687765300273895,
        0.0,
        0.0,
        0.0,
        0.0,
        0.25936204195022583,
        0.0,
        0.0,
        0.0,
        0.0,
        0.23076140880584717,
        0.0,
        0.82149338722229,
        1.0708268880844116,
        2.2648136615753174,
        1.0
      ],
      "name": "Sphere.004_16"
    },
    {
      "mesh": 13,
      "name": "Object_30"
    },
    {
      "children": [
        32
      ],
      "matrix": [
        0.18687765300273895,
        0.0,
        0.0,
        0.0,
        0.0,
        0.25936204195022583,
        0.0,
        0.0,
        0.0,
        0.0,
        0.23076140880584717,
        0.0,
        0.8217577338218689,
        2.418830394744873,
        2.1365532875061035,
        1.0
      ],
      "name": "Sphere.005_17"
    },
    {
      "mesh": 14,
      "name": "Object_32"
    },
    {
      "children": [
        34
      ],
      "matrix": [
        0.18687765300273895,
        0.0,
        0.0,
        0.0,
        0.0,
        0.25936204195022583,
        0.0,
        0.0,
        0.0,
        0.0,
        0.23076140880584717,
        0.0,
        0.8210170269012451,
        3.8607583045959473,
        1.919777750968933,
        1.0
      ],
      "name": "Sphere.006_18"
    },
    {
      "mesh": 15,
      "name": "Object_34"
    },
    {
      "children": [
        36
      ],
      "matrix": [
        0.18687765300273895,
        0.0,
        0.0,
        0.0,
        0.0,
        0.25936204195022583,
        0.0,
        0.0,
        0.0,
        0.0,
        0.23076140880584717,
        0.0,
        0.853600800037384,
        5.274538040161133,
        1.677882432937622,
        1.0
      ],
      "name": "Sphere.007_19"
    },
    {
      "mesh": 16,
      "name": "Object_36"
    }
  ],
  "scene": 0,
  "scenes": [
    {
      "name": "Sketchfab_Scene",
      "nodes": [
        0
      ]
    }
  ]
}
