{
  "accessors": [
    {
      "bufferView": 1,
      "componentType": 5126,
      "count": 65532,
      "max": [
        2.416001081466675,
        1.3335473537445068,
        5.338864326477051
      ],
      "min": [
        -1.712406039237976,
        -1.0740922689437866,
        -2.4859237670898438
      ],
      "type": "VEC3"
    },
    {
      "bufferView": 1,
      "byteOffset": 786384,
      "componentType": 5126,
      "count": 65532,
      "max": [
        0.9999869465827942,
        0.999991238117218,
        0.999986469745636
      ],
      "min": [
        -0.9999904632568359,
        -0.9999488592147827,
        -0.9999918341636658
      ],
      "type": "VEC3"
    },
    {
      "bufferView": 2,
      "componentType": 5126,
      "count": 65532,
      "max": [
        0.8941176533699036,
        0.9176470637321472,
        0.572549045085907,
        1.0
      ],
      "min": [
        0.06666667014360428,
        0.07058823853731155,
        0.06666667014360428,
        1.0
      ],
      "type": "VEC4"
    },
    {
      "bufferView": 0,
      "componentType": 5125,
      "count": 353757,
      "type": "SCALAR"
    },
    {
      "bufferView": 1,
      "byteOffset": 1572768,
      "componentType": 5126,
      "count": 18598,
      "max": [
        2.4136648178100586,
        1.330858826637268,
        5.312788963317871
      ],
      "min": [
        -1.712406039237976,
        -1.0740922689437866,
        -2.485180616378784
      ],
      "type": "VEC3"
    },
    {
      "bufferView": 1,
      "byteOffset": 1795944,
      "componentType": 5126,
      "count": 18598,
      "max": [
        0.9999592900276184,
        0.9999402761459351,
        0.9986714124679565
      ],
      "min": [
        -0.9998810887336731,
        -0.9996738433837891,
        -0.9996349811553955
      ],
      "type": "VEC3"
    },
    {
      "bufferView": 2,
      "byteOffset": 1048512,
      "componentType": 5126,
      "count": 18598,
      "max": [
        0.8901960849761963,
        0.9176470637321472,
        0.5607843399047852,
        1.0
      ],
      "min": [
        0.11764705926179886,
        0.12156862765550613,
        0.0941176488995552,
        1.0
      ],
      "type": "VEC4"
    },
    {
      "bufferView": 0,
      "byteOffset": 1415028,
      "componentType": 5125,
      "count": 48105,
      "type": "SCALAR"
    }
  ],
  "asset": {
    "extras": {
      "author": "Alice Newhouse (https://sketchfab.com/alicenewhouse)",
      "license": "CC-BY-4.0 (http://creativecommons.org/licenses/by/4.0/)",
      "source": "https://sketchfab.com/3d-models/tree-root-tentacle-bf044450f89f409d973e9e8c770f51ee",
      "title": "Tree Root Tentacle"
    },
    "generator": "Sketchfab-12.67.0",
    "version": "2.0"
  },
  "bufferViews": [
    {
      "buffer": 0,
      "byteLength": 1607448,
      "name": "floatBufferViews",
      "target": 34963
    },
    {
      "buffer": 0,
      "byteLength": 2019120,
      "byteOffset": 1607448,
      "byteStride": 12,
      "name": "floatBufferViews",
      "target": 34962
    },
    {
      "buffer": 0,
      "byteLength": 1346080,
      "byteOffset": 3626568,
      "byteStride": 16,
      "name": "floatBufferViews",
      "target": 34962
    }
  ],
  "buffers": [
    {
      "byteLength": 4972648,
      "uri": "scene.bin"
    }
  ],
  "materials": [
    {
      "doubleSided": true,
      "name": "material_0",
      "pbrMetallicRoughness": {
        "metallicFactor": 0.0,
        "roughnessFactor": 0.6
      }
    }
  ],
  "meshes": [
    {
      "name": "Object_0",
      "primitives": [
        {
          "attributes": {
            "COLOR_0": 2,
            "NORMAL": 1,
            "POSITION": 0
          },
          "indices": 3,
          "material": 0,
          "mode": 4
        }
      ]
    },
    {
      "name": "Object_1",
      "primitives": [
        {
          "attributes": {
            "COLOR_0": 6,
            "NORMAL": 5,
            "POSITION": 4
          },
          "indices": 7,
          "material": 0,
          "mode": 4
        }
      ]
    }
  ],
  "nodes": [
    {
      "children": [
        1
      ],
      "matrix": [
        1.0,
        0.0,
        0.0,
        0.0,
        0.0,
        2.220446049250313e-16,
        -1.0,
        0.0,
        0.0,
        1.0,
        2.220446049250313e-16,
        0.0,
        0.0,
        0.0,
        0.0,
        1.0
      ],
      "name": "Sketchfab_model"
    },
    {
      "children": [
        2,
        3
      ],
      "name": "Tentacle_root.OBJ.cleaner.materialmerger.gles"
    },
    {
      "mesh": 0,
      "name": "Object_2"
    },
    {
      "mesh": 1,
      "name": "Object_3"
    }
  ],
  "scene": 0,
  "scenes": [
    {
      "name": "Sketchfab_Scene",
      "nodes": [
        0
      ]
    }
  ]
}
