{
  "accessors": [
    {
      "bufferView": 2,
      "componentType": 5126,
      "count": 65532,
      "max": [
        0.23278045654296875,
        0.851470947265625,
        0.1467895209789276
      ],
      "min": [
        0.08765410631895065,
        0.16253662109375,
        -0.2361907958984375
      ],
      "type": "VEC3"
    },
    {
      "bufferView": 2,
      "byteOffset": 786384,
      "componentType": 5126,
      "count": 65532,
      "max": [
        0.9999380111694336,
        1.0,
        1.0
      ],
      "min": [
        -0.9947196841239929,
        -0.9999690055847168,
        -0.9999380111694336
      ],
      "type": "VEC3"
    },
    {
      "bufferView": 3,
      "componentType": 5126,
      "count": 65532,
      "max": [
        0.9999998211860657,
        0.9999644756317139,
        0.9999704957008362,
        1.0
      ],
      "min": [
        -0.9999668598175049,
        -0.9999986886978149,
        -0.9999597668647766,
        -1.0
      ],
      "type": "VEC4"
    },
    {
      "bufferView": 1,
      "componentType": 5126,
      "count": 65532,
      "max": [
        0.999755859375,
        0.997802734375
      ],
      "min": [
        0.005126953125,
        0.0107421875
      ],
      "type": "VEC2"
    },
    {
      "bufferView": 1,
      "byteOffset": 524256,
      "componentType": 5126,
      "count": 65532,
      "max": [
        0.999755859375,
        0.997802734375
      ],
      "min": [
        0.005126953125,
        0.0107421875
      ],
      "type": "VEC2"
    },
    {
      "bufferView": 1,
      "byteOffset": 1048512,
      "componentType": 5126,
      "count": 65532,
      "max": [
        0.999755859375,
        0.997802734375
      ],
      "min": [
        0.005126953125,
        0.0107421875
      ],
      "type": "VEC2"
    },
    {
      "bufferView": 1,
      "byteOffset": 1572768,
      "componentType": 5126,
      "count": 65532,
      "max": [
        0.999755859375,
        0.997802734375
      ],
      "min": [
        0.005126953125,
        0.0107421875
      ],
      "type": "VEC2"
    },
    {
      "bufferView": 0,
      "componentType": 5125,
      "count": 353049,
      "type": "SCALAR"
    },
    {
      "bufferView": 2,
      "byteOffset": 1572768,
      "componentType": 5126,
      "count": 65532,
      "max": [
        0.22693632543087006,
        0.854217529296875,
        0.1907958984375
      ],
      "min": [
        -0.0003640472423285246,
        0.162567138671875,
        -0.2714691162109375
      ],
      "type": "VEC3"
    },
    {
      "bufferView": 2,
      "byteOffset": 2359152,
      "componentType": 5126,
      "count": 65532,
      "max": [
        0.9999690055847168,
        0.9999690055847168,
        0.9999690055847168
      ],
      "min": [
        -0.9995972514152527,
        -0.9999690055847168,
        -0.9999690055847168
      ],
      "type": "VEC3"
    },
    {
      "bufferView": 3,
      "byteOffset": 1048512,
      "componentType": 5126,
      "count": 65532,
      "max": [
        0.9999495148658752,
        0.9999997019767761,
        0.9999997615814209,
        1.0
      ],
      "min": [
        -0.9999862313270569,
        -0.9999682903289795,
        -0.9999516606330872,
        -1.0
      ],
      "type": "VEC4"
    },
    {
      "bufferView": 1,
      "byteOffset": 2097024,
      "componentType": 5126,
      "count": 65532,
      "max": [
        0.999755859375,
        0.998779296875
      ],
      "min": [
        0.0068359375,
        0.001953125
      ],
      "type": "VEC2"
    },
    {
      "bufferView": 1,
      "byteOffset": 2621280,
      "componentType": 5126,
      "count": 65532,
      "max": [
        0.999755859375,
        0.998779296875
      ],
      "min": [
        0.0068359375,
        0.001953125
      ],
      "type": "VEC2"
    },
    {
      "bufferView": 1,
      "byteOffset": 3145536,
      "componentType": 5126,
      "count": 65532,
      "max": [
        0.999755859375,
        0.998779296875
      ],
      "min": [
        0.0068359375,
        0.001953125
      ],
      "type": "VEC2"
    },
    {
      "bufferView": 1,
      "byteOffset": 3669792,
      "componentType": 5126,
      "count": 65532,
      "max": [
        0.999755859375,
        0.998779296875
      ],
      "min": [
        0.0068359375,
        0.001953125
      ],
      "type": "VEC2"
    },
    {
      "bufferView": 0,
      "byteOffset": 1412196,
      "componentType": 5125,
      "count": 328347,
      "type": "SCALAR"
    },
    {
      "bufferView": 2,
      "byteOffset": 3145536,
      "componentType": 5126,
      "count": 65532,
      "max": [
        0.21508026123046875,
        0.9180908203125,
        0.1953582763671875
      ],
      "min": [
        0.03283689543604851,
        0.1715087890625,
        -0.2710113525390625
      ],
      "type": "VEC3"
    },
    {
      "bufferView": 2,
      "byteOffset": 3931920,
      "componentType": 5126,
      "count": 65532,
      "max": [
        0.9999690055847168,
        0.9999690055847168,
        0.9999690055847168
      ],
      "min": [
        -0.9984536170959473,
        -0.9999690055847168,
        -0.9999690055847168
      ],
      "type": "VEC3"
    },
    {
      "bufferView": 3,
      "byteOffset": 2097024,
      "componentType": 5126,
      "count": 65532,
      "max": [
        0.9999614357948303,
        0.9999691247940063,
        0.9999867081642151,
        1.0
      ],
      "min": [
        -0.9999685883522034,
        -0.9999862313270569,
        -0.9999691843986511,
        -1.0
      ],
      "type": "VEC4"
    },
    {
      "bufferView": 1,
      "byteOffset": 4194048,
      "componentType": 5126,
      "count": 65532,
      "max": [
        1.0,
        0.999755859375
      ],
      "min": [
        0.001220703125,
        0.0
      ],
      "type": "VEC2"
    },
    {
      "bufferView": 1,
      "byteOffset": 4718304,
      "componentType": 5126,
      "count": 65532,
      "max": [
        1.0,
        0.999755859375
      ],
      "min": [
        0.001220703125,
        0.0
      ],
      "type": "VEC2"
    },
    {
      "bufferView": 1,
      "byteOffset": 5242560,
      "componentType": 5126,
      "count": 65532,
      "max": [
        1.0,
        0.999755859375
      ],
      "min": [
        0.001220703125,
        0.0
      ],
      "type": "VEC2"
    },
    {
      "bufferView": 1,
      "byteOffset": 5766816,
      "componentType": 5126,
      "count": 65532,
      "max": [
        1.0,
        0.999755859375
      ],
      "min": [
        0.001220703125,
        0.0
      ],
      "type": "VEC2"
    },
    {
      "bufferView": 0,
      "byteOffset": 2725584,
      "componentType": 5125,
      "count": 321177,
      "type": "SCALAR"
    },
    {
      "bufferView": 2,
      "byteOffset": 4718304,
      "componentType": 5126,
      "count": 65532,
      "max": [
        0.21508026123046875,
        0.91876220703125,
        0.19390869140625
      ],
      "min": [
        0.05849074572324753,
        0.17724609375,
        -0.2677154541015625
      ],
      "type": "VEC3"
    },
    {
      "bufferView": 2,
      "byteOffset": 5504688,
      "componentType": 5126,
      "count": 65532,
      "max": [
        0.9999380111694336,
        0.9995972514152527,
        1.0
      ],
      "min": [
        -0.9961473941802979,
        -1.0,
        -0.9999690055847168
      ],
      "type": "VEC3"
    },
    {
      "bufferView": 3,
      "byteOffset": 3145536,
      "componentType": 5126,
      "count": 65532,
      "max": [
        0.9999692440032959,
        0.9999688863754272,
        0.9999498128890991,
        1.0
      ],
      "min": [
        -0.999963104724884,
        -0.9999411702156067,
        -0.999962329864502,
        -1.0
      ],
      "type": "VEC4"
    },
    {
      "bufferView": 1,
      "byteOffset": 6291072,
      "componentType": 5126,
      "count": 65532,
      "max": [
        0.999755859375,
        1.0
      ],
      "min": [
        0.00732421875,
        0.00439453125
      ],
      "type": "VEC2"
    },
    {
      "bufferView": 1,
      "byteOffset": 6815328,
      "componentType": 5126,
      "count": 65532,
      "max": [
        0.999755859375,
        1.0
      ],
      "min": [
        0.00732421875,
        0.00439453125
      ],
      "type": "VEC2"
    },
    {
      "bufferView": 1,
      "byteOffset": 7339584,
      "componentType": 5126,
      "count": 65532,
      "max": [
        0.999755859375,
        1.0
      ],
      "min": [
        0.00732421875,
        0.00439453125
      ],
      "type": "VEC2"
    },
    {
      "bufferView": 1,
      "byteOffset": 7863840,
      "componentType": 5126,
      "count": 65532,
      "max": [
        0.999755859375,
        1.0
      ],
      "min": [
        0.00732421875,
        0.00439453125
      ],
      "type": "VEC2"
    },
    {
      "bufferView": 0,
      "byteOffset": 4010292,
      "componentType": 5125,
      "count": 320286,
      "type": "SCALAR"
    },
    {
      "bufferView": 2,
      "byteOffset": 6291072,
      "componentType": 5126,
      "count": 65532,
      "max": [
        0.18161772191524506,
        0.963470458984375,
        0.2012328952550888
      ],
      "min": [
        0.011502249166369438,
        0.21026611328125,
        -0.2655792236328125
      ],
      "type": "VEC3"
    },
    {
      "bufferView": 2,
      "byteOffset": 7077456,
      "componentType": 5126,
      "count": 65532,
      "max": [
        0.9999380111694336,
        1.0,
        0.9999690055847168
      ],
      "min": [
        -0.9998451471328735,
        -0.9999690055847168,
        -0.999845027923584
      ],
      "type": "VEC3"
    },
    {
      "bufferView": 3,
      "byteOffset": 4194048,
      "componentType": 5126,
      "count": 65532,
      "max": [
        0.9999768137931824,
        0.9999383687973022,
        1.0,
        1.0
      ],
      "min": [
        -0.9999983906745911,
        -0.9996821284294128,
        -0.9999542832374573,
        -1.0
      ],
      "type": "VEC4"
    },
    {
      "bufferView": 1,
      "byteOffset": 8388096,
      "componentType": 5126,
      "count": 65532,
      "max": [
        1.0,
        0.99755859375
      ],
      "min": [
        0.001220703125,
        0.0009765625
      ],
      "type": "VEC2"
    },
    {
      "bufferView": 1,
      "byteOffset": 8912352,
      "componentType": 5126,
      "count": 65532,
      "max": [
        1.0,
        0.99755859375
      ],
      "min": [
        0.001220703125,
        0.0009765625
      ],
      "type": "VEC2"
    },
    {
      "bufferView": 1,
      "byteOffset": 9436608,
      "componentType": 5126,
      "count": 65532,
      "max": [
        1.0,
        0.99755859375
      ],
      "min": [
        0.001220703125,
        0.0009765625
      ],
      "type": "VEC2"
    },
    {
      "bufferView": 1,
      "byteOffset": 9960864,
      "componentType": 5126,
      "count": 65532,
      "max": [
        1.0,
        0.99755859375
      ],
      "min": [
        0.001220703125,
        0.0009765625
      ],
      "type": "VEC2"
    },
    {
      "bufferView": 0,
      "byteOffset": 5291436,
      "componentType": 5125,
      "count": 323166,
      "type": "SCALAR"
    },
    {
      "bufferView": 2,
      "byteOffset": 7863840,
      "componentType": 5126,
      "count": 65532,
      "max": [
        0.16791535913944244,
        0.963470458984375,
        0.2526702880859375
      ],
      "min": [
        -0.007157339248806238,
        0.2122802734375,
        -0.2643585205078125
      ],
      "type": "VEC3"
    },
    {
      "bufferView": 2,
      "byteOffset": 8650224,
      "componentType": 5126,
      "count": 65532,
      "max": [
        1.0,
        0.9999690055847168,
        1.0
      ],
      "min": [
        -0.999473512172699,
        -0.9999690055847168,
        -0.9999690055847168
      ],
      "type": "VEC3"
    },
    {
      "bufferView": 3,
      "byteOffset": 5242560,
      "componentType": 5126,
      "count": 65532,
      "max": [
        0.9999688863754272,
        0.9999997019767761,
        0.9999692440032959,
        1.0
      ],
      "min": [
        -0.9999980926513672,
        -0.9998762607574463,
        -0.9998753666877747,
        -1.0
      ],
      "type": "VEC4"
    },
    {
      "bufferView": 1,
      "byteOffset": 10485120,
      "componentType": 5126,
      "count": 65532,
      "max": [
        0.991943359375,
        0.993896484375
      ],
      "min": [
        0.00634765625,
        0.003173828125
      ],
      "type": "VEC2"
    },
    {
      "bufferView": 1,
      "byteOffset": 11009376,
      "componentType": 5126,
      "count": 65532,
      "max": [
        0.991943359375,
        0.993896484375
      ],
      "min": [
        0.00634765625,
        0.003173828125
      ],
      "type": "VEC2"
    },
    {
      "bufferView": 1,
      "byteOffset": 11533632,
      "componentType": 5126,
      "count": 65532,
      "max": [
        0.991943359375,
        0.993896484375
      ],
      "min": [
        0.00634765625,
        0.003173828125
      ],
      "type": "VEC2"
    },
    {
      "bufferView": 1,
      "byteOffset": 12057888,
      "componentType": 5126,
      "count": 65532,
      "max": [
        0.991943359375,
        0.993896484375
      ],
      "min": [
        0.00634765625,
        0.003173828125
      ],
      "type": "VEC2"
    },
    {
      "bufferView": 0,
      "byteOffset": 6584100,
      "componentType": 5125,
      "count": 318177,
      "type": "SCALAR"
    },
    {
      "bufferView": 2,
      "byteOffset": 9436608,
      "componentType": 5126,
      "count": 65532,
      "max": [
        0.14514921605587006,
        0.9566650390625,
        0.2530670166015625
      ],
      "min": [
        -0.003216963494196534,
        0.21307373046875,
        -0.2515716552734375
      ],
      "type": "VEC3"
    },
    {
      "bufferView": 2,
      "byteOffset": 10222992,
      "componentType": 5126,
      "count": 65532,
      "max": [
        1.0,
        0.9999690055847168,
        0.9999690055847168
      ],
      "min": [
        -0.9998760223388672,
        -0.999721109867096,
        -0.9999690055847168
      ],
      "type": "VEC3"
    },
    {
      "bufferView": 3,
      "byteOffset": 6291072,
      "componentType": 5126,
      "count": 65532,
      "max": [
        0.9999985098838806,
        0.9999582767486572,
        0.999874472618103,
        1.0
      ],
      "min": [
        -0.9999752640724182,
        -0.9999643564224243,
        -0.9999075531959534,
        -1.0
      ],
      "type": "VEC4"
    },
    {
      "bufferView": 1,
      "byteOffset": 12582144,
      "componentType": 5126,
      "count": 65532,
      "max": [
        0.9990234375,
        0.999755859375
      ],
      "min": [
        0.001220703125,
        0.000732421875
      ],
      "type": "VEC2"
    },
    {
      "bufferView": 1,
      "byteOffset": 13106400,
      "componentType": 5126,
      "count": 65532,
      "max": [
        0.9990234375,
        0.999755859375
      ],
      "min": [
        0.001220703125,
        0.000732421875
      ],
      "type": "VEC2"
    },
    {
      "bufferView": 1,
      "byteOffset": 13630656,
      "componentType": 5126,
      "count": 65532,
      "max": [
        0.9990234375,
        0.999755859375
      ],
      "min": [
        0.001220703125,
        0.000732421875
      ],
      "type": "VEC2"
    },
    {
      "bufferView": 1,
      "byteOffset": 14154912,
      "componentType": 5126,
      "count": 65532,
      "max": [
        0.9990234375,
        0.999755859375
      ],
      "min": [
        0.001220703125,
        0.000732421875
      ],
      "type": "VEC2"
    },
    {
      "bufferView": 0,
      "byteOffset": 7856808,
      "componentType": 5125,
      "count": 323712,
      "type": "SCALAR"
    },
    {
      "bufferView": 2,
      "byteOffset": 11009376,
      "componentType": 5126,
      "count": 65532,
      "max": [
        0.14057157933712006,
        0.968841552734375,
        0.2161712497472763
      ],
      "min": [
        -0.08979032933712006,
        0.215911865234375,
        -0.2606658935546875
      ],
      "type": "VEC3"
    },
    {
      "bufferView": 2,
      "byteOffset": 11795760,
      "componentType": 5126,
      "count": 65532,
      "max": [
        0.9998760223388672,
        0.9999690055847168,
        0.9999690055847168
      ],
      "min": [
        -1.0,
        -0.9998760223388672,
        -0.9999690055847168
      ],
      "type": "VEC3"
    },
    {
      "bufferView": 3,
      "byteOffset": 7339584,
      "componentType": 5126,
      "count": 65532,
      "max": [
        1.0,
        1.0,
        0.9999790191650391,
        1.0
      ],
      "min": [
        -0.9999983906745911,
        -0.999951958656311,
        -0.9999531507492065,
        -1.0
      ],
      "type": "VEC4"
    },
    {
      "bufferView": 1,
      "byteOffset": 14679168,
      "componentType": 5126,
      "count": 65532,
      "max": [
        0.9990234375,
        0.9921875
      ],
      "min": [
        0.001220703125,
        0.0029296875
      ],
      "type": "VEC2"
    },
    {
      "bufferView": 1,
      "byteOffset": 15203424,
      "componentType": 5126,
      "count": 65532,
      "max": [
        0.9990234375,
        0.9921875
      ],
      "min": [
        0.001220703125,
        0.0029296875
      ],
      "type": "VEC2"
    },
    {
      "bufferView": 1,
      "byteOffset": 15727680,
      "componentType": 5126,
      "count": 65532,
      "max": [
        0.9990234375,
        0.9921875
      ],
      "min": [
        0.001220703125,
        0.0029296875
      ],
      "type": "VEC2"
    },
    {
      "bufferView": 1,
      "byteOffset": 16251936,
      "componentType": 5126,
      "count": 65532,
      "max": [
        0.9990234375,
        0.9921875
      ],
      "min": [
        0.001220703125,
        0.0029296875
      ],
      "type": "VEC2"
    },
    {
      "bufferView": 0,
      "byteOffset": 9151656,
      "componentType": 5125,
      "count": 324273,
      "type": "SCALAR"
    },
    {
      "bufferView": 2,
      "byteOffset": 12582144,
      "componentType": 5126,
      "count": 65532,
      "max": [
        0.08640287816524506,
        0.97747802734375,
        0.2624053955078125
      ],
      "min": [
        -0.17913056910037994,
        6.103515625e-05,
        -0.2494201511144638
      ],
      "type": "VEC3"
    },
    {
      "bufferView": 2,
      "byteOffset": 13368528,
      "componentType": 5126,
      "count": 65532,
      "max": [
        1.0,
        0.9999690055847168,
        1.0
      ],
      "min": [
        -0.9999690055847168,
        -0.9999690055847168,
        -1.0
      ],
      "type": "VEC3"
    },
    {
      "bufferView": 3,
      "byteOffset": 8388096,
      "componentType": 5126,
      "count": 65532,
      "max": [
        0.9999688863754272,
        0.9999690651893616,
        0.9999986886978149,
        1.0
      ],
      "min": [
        -0.9999769926071167,
        -0.999998152256012,
        -0.9999690651893616,
        -1.0
      ],
      "type": "VEC4"
    },
    {
      "bufferView": 1,
      "byteOffset": 16776192,
      "componentType": 5126,
      "count": 65532,
      "max": [
        0.997802734375,
        0.998046875
      ],
      "min": [
        0.00732421875,
        0.005615234375
      ],
      "type": "VEC2"
    },
    {
      "bufferView": 1,
      "byteOffset": 17300448,
      "componentType": 5126,
      "count": 65532,
      "max": [
        0.997802734375,
        0.998046875
      ],
      "min": [
        0.00732421875,
        0.005615234375
      ],
      "type": "VEC2"
    },
    {
      "bufferView": 1,
      "byteOffset": 17824704,
      "componentType": 5126,
      "count": 65532,
      "max": [
        0.997802734375,
        0.998046875
      ],
      "min": [
        0.00732421875,
        0.005615234375
      ],
      "type": "VEC2"
    },
    {
      "bufferView": 1,
      "byteOffset": 18348960,
      "componentType": 5126,
      "count": 65532,
      "max": [
        0.997802734375,
        0.998046875
      ],
      "min": [
        0.00732421875,
        0.005615234375
      ],
      "type": "VEC2"
    },
    {
      "bufferView": 0,
      "byteOffset": 10448748,
      "componentType": 5125,
      "count": 326604,
      "type": "SCALAR"
    },
    {
      "bufferView": 2,
      "byteOffset": 14154912,
      "componentType": 5126,
      "count": 65532,
      "max": [
        0.0004789360682480037,
        0.978057861328125,
        0.2349548488855362
      ],
      "min": [
        -0.18221281468868256,
        0.144378662109375,
        -0.11720272898674011
      ],
      "type": "VEC3"
    },
    {
      "bufferView": 2,
      "byteOffset": 14941296,
      "componentType": 5126,
      "count": 65532,
      "max": [
        0.9981143474578857,
        0.9999690055847168,
        1.0
      ],
      "min": [
        -0.9999690055847168,
        -0.9999380111694336,
        -0.9999380111694336
      ],
      "type": "VEC3"
    },
    {
      "bufferView": 3,
      "byteOffset": 9436608,
      "componentType": 5126,
      "count": 65532,
      "max": [
        1.0,
        0.9998757243156433,
        1.0,
        1.0
      ],
      "min": [
        -0.9999975562095642,
        -0.9999966621398926,
        -1.0,
        -1.0
      ],
      "type": "VEC4"
    },
    {
      "bufferView": 1,
      "byteOffset": 18873216,
      "componentType": 5126,
      "count": 65532,
      "max": [
        0.999755859375,
        0.999267578125
      ],
      "min": [
        0.02099609375,
        0.0009765625
      ],
      "type": "VEC2"
    },
    {
      "bufferView": 1,
      "byteOffset": 19397472,
      "componentType": 5126,
      "count": 65532,
      "max": [
        0.999755859375,
        0.999267578125
      ],
      "min": [
        0.02099609375,
        0.0009765625
      ],
      "type": "VEC2"
    },
    {
      "bufferView": 1,
      "byteOffset": 19921728,
      "componentType": 5126,
      "count": 65532,
      "max": [
        0.999755859375,
        0.999267578125
      ],
      "min": [
        0.02099609375,
        0.0009765625
      ],
      "type": "VEC2"
    },
    {
      "bufferView": 1,
      "byteOffset": 20445984,
      "componentType": 5126,
      "count": 65532,
      "max": [
        0.999755859375,
        0.999267578125
      ],
      "min": [
        0.02099609375,
        0.0009765625
      ],
      "type": "VEC2"
    },
    {
      "bufferView": 0,
      "byteOffset": 11755164,
      "componentType": 5125,
      "count": 343857,
      "type": "SCALAR"
    },
    {
      "bufferView": 2,
      "byteOffset": 15727680,
      "componentType": 5126,
      "count": 65532,
      "max": [
        -0.03794098645448685,
        0.97821044921875,
        0.2350616604089737
      ],
      "min": [
        -0.22144317626953125,
        0.12652587890625,
        -0.11720272898674011
      ],
      "type": "VEC3"
    },
    {
      "bufferView": 2,
      "byteOffset": 16514064,
      "componentType": 5126,
      "count": 65532,
      "max": [
        0.9994733929634094,
        0.9999690055847168,
        0.9999380111694336
      ],
      "min": [
        -0.9998760223388672,
        -1.0,
        -0.9999690055847168
      ],
      "type": "VEC3"
    },
    {
      "bufferView": 3,
      "byteOffset": 10485120,
      "componentType": 5126,
      "count": 65532,
      "max": [
        0.9999691247940063,
        0.9999790191650391,
        0.9999709725379944,
        1.0
      ],
      "min": [
        -0.9999998807907104,
        -0.999876081943512,
        -0.9999690055847168,
        -1.0
      ],
      "type": "VEC4"
    },
    {
      "bufferView": 1,
      "byteOffset": 20970240,
      "componentType": 5126,
      "count": 65532,
      "max": [
        0.999755859375,
        1.0
      ],
      "min": [
        0.001953125,
        0.001220703125
      ],
      "type": "VEC2"
    },
    {
      "bufferView": 1,
      "byteOffset": 21494496,
      "componentType": 5126,
      "count": 65532,
      "max": [
        0.999755859375,
        1.0
      ],
      "min": [
        0.001953125,
        0.001220703125
      ],
      "type": "VEC2"
    },
    {
      "bufferView": 1,
      "byteOffset": 22018752,
      "componentType": 5126,
      "count": 65532,
      "max": [
        0.999755859375,
        1.0
      ],
      "min": [
        0.001953125,
        0.001220703125
      ],
      "type": "VEC2"
    },
    {
      "bufferView": 1,
      "byteOffset": 22543008,
      "componentType": 5126,
      "count": 65532,
      "max": [
        0.999755859375,
        1.0
      ],
      "min": [
        0.001953125,
        0.001220703125
      ],
      "type": "VEC2"
    },
    {
      "bufferView": 0,
      "byteOffset": 13130592,
      "componentType": 5125,
      "count": 339498,
      "type": "SCALAR"
    },
    {
      "bufferView": 2,
      "byteOffset": 17300448,
      "componentType": 5126,
      "count": 65532,
      "max": [
        -0.0329437293112278,
        0.97796630859375,
        0.2350616604089737
      ],
      "min": [
        -0.22231292724609375,
        0.14263916015625,
        -0.11720272898674011
      ],
      "type": "VEC3"
    },
    {
      "bufferView": 2,
      "byteOffset": 18086832,
      "componentType": 5126,
      "count": 65532,
      "max": [
        0.9999690055847168,
        0.9998760223388672,
        1.0
      ],
      "min": [
        -0.999473512172699,
        -0.9999690055847168,
        -1.0
      ],
      "type": "VEC3"
    },
    {
      "bufferView": 3,
      "byteOffset": 11533632,
      "componentType": 5126,
      "count": 65532,
      "max": [
        0.9999538064002991,
        0.999995231628418,
        0.9999687671661377,
        1.0
      ],
      "min": [
        -0.9998646378517151,
        -0.9996240735054016,
        -0.9997420907020569,
        -1.0
      ],
      "type": "VEC4"
    },
    {
      "bufferView": 1,
      "byteOffset": 23067264,
      "componentType": 5126,
      "count": 65532,
      "max": [
        0.994140625,
        0.998779296875
      ],
      "min": [
        0.0048828125,
        0.00537109375
      ],
      "type": "VEC2"
    },
    {
      "bufferView": 1,
      "byteOffset": 23591520,
      "componentType": 5126,
      "count": 65532,
      "max": [
        0.994140625,
        0.998779296875
      ],
      "min": [
        0.0048828125,
        0.00537109375
      ],
      "type": "VEC2"
    },
    {
      "bufferView": 1,
      "byteOffset": 24115776,
      "componentType": 5126,
      "count": 65532,
      "max": [
        0.994140625,
        0.998779296875
      ],
      "min": [
        0.0048828125,
        0.00537109375
      ],
      "type": "VEC2"
    },
    {
      "bufferView": 1,
      "byteOffset": 24640032,
      "componentType": 5126,
      "count": 65532,
      "max": [
        0.994140625,
        0.998779296875
      ],
      "min": [
        0.0048828125,
        0.00537109375
      ],
      "type": "VEC2"
    },
    {
      "bufferView": 0,
      "byteOffset": 14488584,
      "componentType": 5125,
      "count": 322713,
      "type": "SCALAR"
    },
    {
      "bufferView": 2,
      "byteOffset": 18873216,
      "componentType": 5126,
      "count": 65532,
      "max": [
        -0.05659102275967598,
        0.9154052734375,
        0.2135620266199112
      ],
      "min": [
        -0.22626493871212006,
        0.12652587890625,
        -0.11677548289299011
      ],
      "type": "VEC3"
    },
    {
      "bufferView": 2,
      "byteOffset": 19659600,
      "componentType": 5126,
      "count": 65532,
      "max": [
        0.9994733929634094,
        0.9999690055847168,
        1.0
      ],
      "min": [
        -0.9997521042823792,
        -0.9999690055847168,
        -0.9999690055847168
      ],
      "type": "VEC3"
    },
    {
      "bufferView": 3,
      "byteOffset": 12582144,
      "componentType": 5126,
      "count": 65532,
      "max": [
        0.9999908804893494,
        0.9999690651893616,
        0.9998722672462463,
        1.0
      ],
      "min": [
        -1.0,
        -0.9999691247940063,
        -0.9999979734420776,
        -1.0
      ],
      "type": "VEC4"
    },
    {
      "bufferView": 1,
      "byteOffset": 25164288,
      "componentType": 5126,
      "count": 65532,
      "max": [
        0.999755859375,
        0.999755859375
      ],
      "min": [
        0.001220703125,
        0.000732421875
      ],
      "type": "VEC2"
    },
    {
      "bufferView": 1,
      "byteOffset": 25688544,
      "componentType": 5126,
      "count": 65532,
      "max": [
        0.999755859375,
        0.999755859375
      ],
      "min": [
        0.001220703125,
        0.000732421875
      ],
      "type": "VEC2"
    },
    {
      "bufferView": 1,
      "byteOffset": 26212800,
      "componentType": 5126,
      "count": 65532,
      "max": [
        0.999755859375,
        0.999755859375
      ],
      "min": [
        0.001220703125,
        0.000732421875
      ],
      "type": "VEC2"
    },
    {
      "bufferView": 1,
      "byteOffset": 26737056,
      "componentType": 5126,
      "count": 65532,
      "max": [
        0.999755859375,
        0.999755859375
      ],
      "min": [
        0.001220703125,
        0.000732421875
      ],
      "type": "VEC2"
    },
    {
      "bufferView": 0,
      "byteOffset": 15779436,
      "componentType": 5125,
      "count": 324132,
      "type": "SCALAR"
    },
    {
      "bufferView": 2,
      "byteOffset": 20445984,
      "componentType": 5126,
      "count": 65532,
      "max": [
        -0.012230882421135902,
        0.96087646484375,
        0.2302551418542862
      ],
      "min": [
        -0.23278045654296875,
        0.154693603515625,
        -0.11569210141897202
      ],
      "type": "VEC3"
    },
    {
      "bufferView": 2,
      "byteOffset": 21232368,
      "componentType": 5126,
      "count": 65532,
      "max": [
        0.9843741059303284,
        0.9999690055847168,
        1.0
      ],
      "min": [
        -0.9998451471328735,
        -0.9999690055847168,
        -1.0
      ],
      "type": "VEC3"
    },
    {
      "bufferView": 3,
      "byteOffset": 13630656,
      "componentType": 5126,
      "count": 65532,
      "max": [
        0.9999186992645264,
        0.9999589323997498,
        0.9999691247940063,
        1.0
      ],
      "min": [
        -0.9999894499778748,
        -0.9999998807907104,
        -0.9995817542076111,
        -1.0
      ],
      "type": "VEC4"
    },
    {
      "bufferView": 1,
      "byteOffset": 27261312,
      "componentType": 5126,
      "count": 65532,
      "max": [
        0.995849609375,
        0.999755859375
      ],
      "min": [
        0.0,
        0.000732421875
      ],
      "type": "VEC2"
    },
    {
      "bufferView": 1,
      "byteOffset": 27785568,
      "componentType": 5126,
      "count": 65532,
      "max": [
        0.995849609375,
        0.999755859375
      ],
      "min": [
        0.0,
        0.000732421875
      ],
      "type": "VEC2"
    },
    {
      "bufferView": 1,
      "byteOffset": 28309824,
      "componentType": 5126,
      "count": 65532,
      "max": [
        0.995849609375,
        0.999755859375
      ],
      "min": [
        0.0,
        0.000732421875
      ],
      "type": "VEC2"
    },
    {
      "bufferView": 1,
      "byteOffset": 28834080,
      "componentType": 5126,
      "count": 65532,
      "max": [
        0.995849609375,
        0.999755859375
      ],
      "min": [
        0.0,
        0.000732421875
      ],
      "type": "VEC2"
    },
    {
      "bufferView": 0,
      "byteOffset": 17075964,
      "componentType": 5125,
      "count": 312996,
      "type": "SCALAR"
    },
    {
      "bufferView": 2,
      "byteOffset": 22018752,
      "componentType": 5126,
      "count": 65532,
      "max": [
        0.020179761573672295,
        0.97161865234375,
        0.2259521633386612
      ],
      "min": [
        -0.08255770057439804,
        0.164794921875,
        -0.1079711765050888
      ],
      "type": "VEC3"
    },
    {
      "bufferView": 2,
      "byteOffset": 22805136,
      "componentType": 5126,
      "count": 65532,
      "max": [
        1.0,
        0.9999690055847168,
        0.9999690055847168
      ],
      "min": [
        -0.9999690055847168,
        -1.0,
        -0.9999690055847168
      ],
      "type": "VEC3"
    },
    {
      "bufferView": 3,
      "byteOffset": 14679168,
      "componentType": 5126,
      "count": 65532,
      "max": [
        0.9999515414237976,
        0.9998399615287781,
        0.9999668598175049,
        1.0
      ],
      "min": [
        -0.9999958872795105,
        -0.9999797344207764,
        -1.0,
        -1.0
      ],
      "type": "VEC4"
    },
    {
      "bufferView": 1,
      "byteOffset": 29358336,
      "componentType": 5126,
      "count": 65532,
      "max": [
        0.999755859375,
        0.998779296875
      ],
      "min": [
        0.001220703125,
        0.000732421875
      ],
      "type": "VEC2"
    },
    {
      "bufferView": 1,
      "byteOffset": 29882592,
      "componentType": 5126,
      "count": 65532,
      "max": [
        0.999755859375,
        0.998779296875
      ],
      "min": [
        0.001220703125,
        0.000732421875
      ],
      "type": "VEC2"
    },
    {
      "bufferView": 1,
      "byteOffset": 30406848,
      "componentType": 5126,
      "count": 65532,
      "max": [
        0.999755859375,
        0.998779296875
      ],
      "min": [
        0.001220703125,
        0.000732421875
      ],
      "type": "VEC2"
    },
    {
      "bufferView": 1,
      "byteOffset": 30931104,
      "componentType": 5126,
      "count": 65532,
      "max": [
        0.999755859375,
        0.998779296875
      ],
      "min": [
        0.001220703125,
        0.000732421875
      ],
      "type": "VEC2"
    },
    {
      "bufferView": 0,
      "byteOffset": 18327948,
      "componentType": 5125,
      "count": 354780,
      "type": "SCALAR"
    },
    {
      "bufferView": 2,
      "byteOffset": 23591520,
      "componentType": 5126,
      "count": 65532,
      "max": [
        0.028551101684570313,
        0.97119140625,
        0.2714691162109375
      ],
      "min": [
        -0.055763229727745056,
        0.157257080078125,
        -0.08176419883966446
      ],
      "type": "VEC3"
    },
    {
      "bufferView": 2,
      "byteOffset": 24377904,
      "componentType": 5126,
      "count": 65532,
      "max": [
        0.9999690055847168,
        1.0,
        1.0
      ],
      "min": [
        -1.0,
        -0.9998451471328735,
        -0.9999690055847168
      ],
      "type": "VEC3"
    },
    {
      "bufferView": 3,
      "byteOffset": 15727680,
      "componentType": 5126,
      "count": 65532,
      "max": [
        1.0,
        0.9999670386314392,
        0.9999980330467224,
        1.0
      ],
      "min": [
        -1.0,
        -0.9999809861183167,
        -0.9999688267707825,
        -1.0
      ],
      "type": "VEC4"
    },
    {
      "bufferView": 1,
      "byteOffset": 31455360,
      "componentType": 5126,
      "count": 65532,
      "max": [
        0.99853515625,
        0.999755859375
      ],
      "min": [
        0.001708984375,
        0.0009765625
      ],
      "type": "VEC2"
    },
    {
      "bufferView": 1,
      "byteOffset": 31979616,
      "componentType": 5126,
      "count": 65532,
      "max": [
        0.99853515625,
        0.999755859375
      ],
      "min": [
        0.001708984375,
        0.0009765625
      ],
      "type": "VEC2"
    },
    {
      "bufferView": 1,
      "byteOffset": 32503872,
      "componentType": 5126,
      "count": 65532,
      "max": [
        0.99853515625,
        0.999755859375
      ],
      "min": [
        0.001708984375,
        0.0009765625
      ],
      "type": "VEC2"
    },
    {
      "bufferView": 1,
      "byteOffset": 33028128,
      "componentType": 5126,
      "count": 65532,
      "max": [
        0.99853515625,
        0.999755859375
      ],
      "min": [
        0.001708984375,
        0.0009765625
      ],
      "type": "VEC2"
    },
    {
      "bufferView": 0,
      "byteOffset": 19747068,
      "componentType": 5125,
      "count": 353025,
      "type": "SCALAR"
    },
    {
      "bufferView": 2,
      "byteOffset": 25164288,
      "componentType": 5126,
      "count": 65532,
      "max": [
        0.040626510977745056,
        0.95068359375,
        0.2701263427734375
      ],
      "min": [
        -0.036754585802555084,
        0.0,
        -0.0732574313879013
      ],
      "type": "VEC3"
    },
    {
      "bufferView": 2,
      "byteOffset": 25950672,
      "componentType": 5126,
      "count": 65532,
      "max": [
        1.0,
        0.9999690055847168,
        1.0
      ],
      "min": [
        -0.9999690055847168,
        -1.0,
        -1.0
      ],
      "type": "VEC3"
    },
    {
      "bufferView": 3,
      "byteOffset": 16776192,
      "componentType": 5126,
      "count": 65532,
      "max": [
        0.9999994039535522,
        0.9999683499336243,
        0.9999979138374329,
        1.0
      ],
      "min": [
        -1.0,
        -1.0,
        -0.9999538064002991,
        -1.0
      ],
      "type": "VEC4"
    },
    {
      "bufferView": 1,
      "byteOffset": 33552384,
      "componentType": 5126,
      "count": 65532,
      "max": [
        0.99560546875,
        0.99951171875
      ],
      "min": [
        0.00146484375,
        0.001220703125
      ],
      "type": "VEC2"
    },
    {
      "bufferView": 1,
      "byteOffset": 34076640,
      "componentType": 5126,
      "count": 65532,
      "max": [
        0.99560546875,
        0.99951171875
      ],
      "min": [
        0.00146484375,
        0.001220703125
      ],
      "type": "VEC2"
    },
    {
      "bufferView": 1,
      "byteOffset": 34600896,
      "componentType": 5126,
      "count": 65532,
      "max": [
        0.99560546875,
        0.99951171875
      ],
      "min": [
        0.00146484375,
        0.001220703125
      ],
      "type": "VEC2"
    },
    {
      "bufferView": 1,
      "byteOffset": 35125152,
      "componentType": 5126,
      "count": 65532,
      "max": [
        0.99560546875,
        0.99951171875
      ],
      "min": [
        0.00146484375,
        0.001220703125
      ],
      "type": "VEC2"
    },
    {
      "bufferView": 0,
      "byteOffset": 21159168,
      "componentType": 5125,
      "count": 348900,
      "type": "SCALAR"
    },
    {
      "bufferView": 2,
      "byteOffset": 26737056,
      "componentType": 5126,
      "count": 27830,
      "max": [
        0.0789947360754013,
        0.953094482421875,
        0.2269287109375
      ],
      "min": [
        -0.012260423973202705,
        0.0,
        -0.2360381782054901
      ],
      "type": "VEC3"
    },
    {
      "bufferView": 2,
      "byteOffset": 27071016,
      "componentType": 5126,
      "count": 27830,
      "max": [
        0.9999380111694336,
        0.9998760223388672,
        0.9999690055847168
      ],
      "min": [
        -0.9999380111694336,
        -0.9999690055847168,
        -0.9999690055847168
      ],
      "type": "VEC3"
    },
    {
      "bufferView": 3,
      "byteOffset": 17824704,
      "componentType": 5126,
      "count": 27830,
      "max": [
        0.9999700784683228,
        0.9999688863754272,
        0.9999790191650391,
        1.0
      ],
      "min": [
        -0.9999635219573975,
        -0.9999900460243225,
        -0.9998744130134583,
        -1.0
      ],
      "type": "VEC4"
    },
    {
      "bufferView": 1,
      "byteOffset": 35649408,
      "componentType": 5126,
      "count": 27830,
      "max": [
        0.99560546875,
        1.0
      ],
      "min": [
        0.006103515625,
        0.009033203125
      ],
      "type": "VEC2"
    },
    {
      "bufferView": 1,
      "byteOffset": 35872048,
      "componentType": 5126,
      "count": 27830,
      "max": [
        0.99560546875,
        1.0
      ],
      "min": [
        0.006103515625,
        0.009033203125
      ],
      "type": "VEC2"
    },
    {
      "bufferView": 1,
      "byteOffset": 36094688,
      "componentType": 5126,
      "count": 27830,
      "max": [
        0.99560546875,
        1.0
      ],
      "min": [
        0.006103515625,
        0.009033203125
      ],
      "type": "VEC2"
    },
    {
      "bufferView": 1,
      "byteOffset": 36317328,
      "componentType": 5126,
      "count": 27830,
      "max": [
        0.99560546875,
        1.0
      ],
      "min": [
        0.006103515625,
        0.009033203125
      ],
      "type": "VEC2"
    },
    {
      "bufferView": 0,
      "byteOffset": 22554768,
      "componentType": 5125,
      "count": 122280,
      "type": "SCALAR"
    }
  ],
  "asset": {
    "extras": {
      "author": "Galaxy Abundant™ (https://sketchfab.com/galaxyabundant)",
      "license": "CC-BY-4.0 (http://creativecommons.org/licenses/by/4.0/)",
      "source": "https://sketchfab.com/3d-models/late-bloom-golden-sunflower--ti-c82da276c90646a58dec849e43635f63",
      "title": "Late-Bloom Golden Sunflower _Ti"
    },
    "generator": "Sketchfab-0.3.0",
    "version": "2.0"
  },
  "bufferViews": [
    {
      "buffer": 0,
      "byteLength": 23043888,
      "name": "floatBufferViews",
      "target": 34963
    },
    {
      "buffer": 0,
      "byteLength": 36539968,
      "byteOffset": 23043888,
      "byteStride": 8,
      "name": "floatBufferViews",
      "target": 34962
    },
    {
      "buffer": 0,
      "byteLength": 27404976,
      "byteOffset": 59583856,
      "byteStride": 12,
      "name": "floatBufferViews",
      "target": 34962
    },
    {
      "buffer": 0,
      "byteLength": 18269984,
      "byteOffset": 86988832,
      "byteStride": 16,
      "name": "floatBufferViews",
      "target": 34962
    }
  ],
  "buffers": [
    {
      "byteLength": 105258816,
      "uri": "scene.bin"
    }
  ],
  "images": [
    {
      "uri": "textures/tripo_material_0123f08a-5713-4c07-8c00-576ee5756e71_baseColor.jpeg"
    },
    {
      "uri": "textures/tripo_material_0123f08a-5713-4c07-8c00-576ee5756e71_metallicRoughness.png"
    },
    {
      "uri": "textures/tripo_material_0123f08a-5713-4c07-8c00-576ee5756e71_normal.jpeg"
    }
  ],
  "materials": [
    {
      "name": "tripo_material_0123f08a-5713-4c07-8c00-576ee5756e71",
      "normalTexture": {
        "index": 2,
        "texCoord": 2
      },
      "pbrMetallicRoughness": {
        "baseColorTexture": {
          "index": 0
        },
        "metallicRoughnessTexture": {
          "index": 1,
          "texCoord": 1
        }
      }
    }
  ],
  "meshes": [
    {
      "name": "Object_0",
      "primitives": [
        {
          "attributes": {
            "NORMAL": 1,
            "POSITION": 0,
            "TANGENT": 2,
            "TEXCOORD_0": 3,
            "TEXCOORD_1": 4,
            "TEXCOORD_2": 5,
            "TEXCOORD_3": 6
          },
          "indices": 7,
          "material": 0,
          "mode": 4
        }
      ]
    },
    {
      "name": "Object_1",
      "primitives": [
        {
          "attributes": {
            "NORMAL": 9,
            "POSITION": 8,
            "TANGENT": 10,
            "TEXCOORD_0": 11,
            "TEXCOORD_1": 12,
            "TEXCOORD_2": 13,
            "TEXCOORD_3": 14
          },
          "indices": 15,
          "material": 0,
          "mode": 4
        }
      ]
    },
    {
      "name": "Object_2",
      "primitives": [
        {
          "attributes": {
            "NORMAL": 17,
            "POSITION": 16,
            "TANGENT": 18,
            "TEXCOORD_0": 19,
            "TEXCOORD_1": 20,
            "TEXCOORD_2": 21,
            "TEXCOORD_3": 22
          },
          "indices": 23,
          "material": 0,
          "mode": 4
        }
      ]
    },
    {
      "name": "Object_3",
      "primitives": [
        {
          "attributes": {
            "NORMAL": 25,
            "POSITION": 24,
            "TANGENT": 26,
            "TEXCOORD_0": 27,
            "TEXCOORD_1": 28,
            "TEXCOORD_2": 29,
            "TEXCOORD_3": 30
          },
          "indices": 31,
          "material": 0,
          "mode": 4
        }
      ]
    },
    {
      "name": "Object_4",
      "primitives": [
        {
          "attributes": {
            "NORMAL": 33,
            "POSITION": 32,
            "TANGENT": 34,
            "TEXCOORD_0": 35,
            "TEXCOORD_1": 36,
            "TEXCOORD_2": 37,
            "TEXCOORD_3": 38
          },
          "indices": 39,
          "material": 0,
          "mode": 4
        }
      ]
    },
    {
      "name": "Object_5",
      "primitives": [
        {
          "attributes": {
            "NORMAL": 41,
            "POSITION": 40,
            "TANGENT": 42,
            "TEXCOORD_0": 43,
            "TEXCOORD_1": 44,
            "TEXCOORD_2": 45,
            "TEXCOORD_3": 46
          },
          "indices": 47,
          "material": 0,
          "mode": 4
        }
      ]
    },
    {
      "name": "Object_6",
      "primitives": [
        {
          "attributes": {
            "NORMAL": 49,
            "POSITION": 48,
            "TANGENT": 50,
            "TEXCOORD_0": 51,
            "TEXCOORD_1": 52,
            "TEXCOORD_2": 53,
            "TEXCOORD_3": 54
          },
          "indices": 55,
          "material": 0,
          "mode": 4
        }
      ]
    },
    {
      "name": "Object_7",
      "primitives": [
        {
          "attributes": {
            "NORMAL": 57,
            "POSITION": 56,
            "TANGENT": 58,
            "TEXCOORD_0": 59,
            "TEXCOORD_1": 60,
            "TEXCOORD_2": 61,
            "TEXCOORD_3": 62
          },
          "indices": 63,
          "material": 0,
          "mode": 4
        }
      ]
    },
    {
      "name": "Object_8",
      "primitives": [
        {
          "attributes": {
            "NORMAL": 65,
            "POSITION": 64,
            "TANGENT": 66,
            "TEXCOORD_0": 67,
            "TEXCOORD_1": 68,
            "TEXCOORD_2": 69,
            "TEXCOORD_3": 70
          },
          "indices": 71,
          "material": 0,
          "mode": 4
        }
      ]
    },
    {
      "name": "Object_9",
      "primitives": [
        {
          "attributes": {
            "NORMAL": 73,
            "POSITION": 72,
            "TANGENT": 74,
            "TEXCOORD_0": 75,
            "TEXCOORD_1": 76,
            "TEXCOORD_2": 77,
            "TEXCOORD_3": 78
          },
          "indices": 79,
          "material": 0,
          "mode": 4
        }
      ]
    },
    {
      "name": "Object_10",
      "primitives": [
        {
          "attributes": {
            "NORMAL": 81,
            "POSITION": 80,
            "TANGENT": 82,
            "TEXCOORD_0": 83,
            "TEXCOORD_1": 84,
            "TEXCOORD_2": 85,
            "TEXCOORD_3": 86
          },
          "indices": 87,
          "material": 0,
          "mode": 4
        }
      ]
    },
    {
      "name": "Object_11",
      "primitives": [
        {
          "attributes": {
            "NORMAL": 89,
            "POSITION": 88,
            "TANGENT": 90,
            "TEXCOORD_0": 91,
            "TEXCOORD_1": 92,
            "TEXCOORD_2": 93,
            "TEXCOORD_3": 94
          },
          "indices": 95,
          "material": 0,
          "mode": 4
        }
      ]
    },
    {
      "name": "Object_12",
      "primitives": [
        {
          "attributes": {
            "NORMAL": 97,
            "POSITION": 96,
            "TANGENT": 98,
            "TEXCOORD_0": 99,
            "TEXCOORD_1": 100,
            "TEXCOORD_2": 101,
            "TEXCOORD_3": 102
          },
          "indices": 103,
          "material": 0,
          "mode": 4
        }
      ]
    },
    {
      "name": "Object_13",
      "primitives": [
        {
          "attributes": {
            "NORMAL": 105,
            "POSITION": 104,
            "TANGENT": 106,
            "TEXCOORD_0": 107,
            "TEXCOORD_1": 108,
            "TEXCOORD_2": 109,
            "TEXCOORD_3": 110
          },
          "indices": 111,
          "material": 0,
          "mode": 4
        }
      ]
    },
    {
      "name": "Object_14",
      "primitives": [
        {
          "attributes": {
            "NORMAL": 113,
            "POSITION": 112,
            "TANGENT": 114,
            "TEXCOORD_0": 115,
            "TEXCOORD_1": 116,
            "TEXCOORD_2": 117,
            "TEXCOORD_3": 118
          },
          "indices": 119,
          "material": 0,
          "mode": 4
        }
      ]
    },
    {
      "name": "Object_15",
      "primitives": [
        {
          "attributes": {
            "NORMAL": 121,
            "POSITION": 120,
            "TANGENT": 122,
            "TEXCOORD_0": 123,
            "TEXCOORD_1": 124,
            "TEXCOORD_2": 125,
            "TEXCOORD_3": 126
          },
          "indices": 127,
          "material": 0,
          "mode": 4
        }
      ]
    },
    {
      "name": "Object_16",
      "primitives": [
        {
          "attributes": {
            "NORMAL": 129,
            "POSITION": 128,
            "TANGENT": 130,
            "TEXCOORD_0": 131,
            "TEXCOORD_1": 132,
            "TEXCOORD_2": 133,
            "TEXCOORD_3": 134
          },
          "indices": 135,
          "material": 0,
          "mode": 4
        }
      ]
    },
    {
      "name": "Object_17",
      "primitives": [
        {
          "attributes": {
            "NORMAL": 137,
            "POSITION": 136,
            "TANGENT": 138,
            "TEXCOORD_0": 139,
            "TEXCOORD_1": 140,
            "TEXCOORD_2": 141,
            "TEXCOORD_3": 142
          },
          "indices": 143,
          "material": 0,
          "mode": 4
        }
      ]
    }
  ],
  "nodes": [
    {
      "children": [
        1
      ],
      "matrix": [
        1.0,
        0.0,
        0.0,
        0.0,
        0.0,
        2.220446049250313e-16,
        -1.0,
        0.0,
        0.0,
        1.0,
        2.220446049250313e-16,
        0.0,
        0.0,
        0.0,
        0.0,
        1.0
      ],
      "name": "Sketchfab_model"
    },
    {
      "children": [
        2
      ],
      "name": "root"
    },
    {
      "children": [
        3
      ],
      "matrix": [
        1.0,
        0.0,
        0.0,
        0.0,
        0.0,
        2.220446049250313e-16,
        1.0,
        0.0,
        0.0,
        -1.0,
        2.220446049250313e-16,
        0.0,
        0.0,
        0.0,
        0.0,
        1.0
      ],
      "name": "GLTF_SceneRootNode"
    },
    {
      "children": [
        4,
        5,
        6,
        7,
        8,
        9,
        10,
        11,
        12,
        13,
        14,
        15,
        16,
        17,
        18,
        19,
        20,
        21
      ],
      "name": "tripo_node_0123f08a-5713-4c07-8c00-576ee5756e71_0"
    },
    {
      "mesh": 0,
      "name": "Object_4"
    },
    {
      "mesh": 1,
      "name": "Object_5"
    },
    {
      "mesh": 2,
      "name": "Object_6"
    },
    {
      "mesh": 3,
      "name": "Object_7"
    },
    {
      "mesh": 4,
      "name": "Object_8"
    },
    {
      "mesh": 5,
      "name": "Object_9"
    },
    {
      "mesh": 6,
      "name": "Object_10"
    },
    {
      "mesh": 7,
      "name": "Object_11"
    },
    {
      "mesh": 8,
      "name": "Object_12"
    },
    {
      "mesh": 9,
      "name": "Object_13"
    },
    {
      "mesh": 10,
      "name": "Object_14"
    },
    {
      "mesh": 11,
      "name": "Object_15"
    },
    {
      "mesh": 12,
      "name": "Object_16"
    },
    {
      "mesh": 13,
      "name": "Object_17"
    },
    {
      "mesh": 14,
      "name": "Object_18"
    },
    {
      "mesh": 15,
      "name": "Object_19"
    },
    {
      "mesh": 16,
      "name": "Object_20"
    },
    {
      "mesh": 17,
      "name": "Object_21"
    }
  ],
  "samplers": [
    {
      "magFilter": 9729,
      "minFilter": 9729,
      "wrapS": 10497,
      "wrapT": 10497
    }
  ],
  "scene": 0,
  "scenes": [
    {
      "name": "Sketchfab_Scene",
      "nodes": [
        0
      ]
    }
  ],
  "textures": [
    {
      "sampler": 0,
      "source": 0
    },
    {
      "sampler": 0,
      "source": 1
    },
    {
      "sampler": 0,
      "source": 2
    }
  ]
}
