{
  "accessors": [
    {
      "bufferView": 2,
      "componentType": 5126,
      "count": 65532,
      "max": [
        0.30023193359375,
        0.75628662109375,
        -0.018156051635742188
      ],
      "min": [
        -0.32952880859375,
        0.005279541015625,
        -0.489990234375
      ],
      "type": "VEC3"
    },
    {
      "bufferView": 2,
      "byteOffset": 786384,
      "componentType": 5126,
      "count": 65532,
      "max": [
        0.9999375939369202,
        1.0,
        0.9996926188468933
      ],
      "min": [
        -0.9999688863754272,
        -1.0,
        -0.9999688863754272
      ],
      "type": "VEC3"
    },
    {
      "bufferView": 3,
      "componentType": 5126,
      "count": 65532,
      "max": [
        0.9998726844787598,
        0.9996107816696167,
        0.9999985098838806,
        1.0
      ],
      "min": [
        -0.9999693036079407,
        -0.998708188533783,
        -0.9999979138374329,
        -1.0
      ],
      "type": "VEC4"
    },
    {
      "bufferView": 1,
      "componentType": 5126,
      "count": 65532,
      "max": [
        0.994140625,
        1.0
      ],
      "min": [
        0.002197265625,
        0.012939453125
      ],
      "type": "VEC2"
    },
    {
      "bufferView": 1,
      "byteOffset": 524256,
      "componentType": 5126,
      "count": 65532,
      "max": [
        0.994140625,
        1.0
      ],
      "min": [
        0.002197265625,
        0.012939453125
      ],
      "type": "VEC2"
    },
    {
      "bufferView": 1,
      "byteOffset": 1048512,
      "componentType": 5126,
      "count": 65532,
      "max": [
        0.994140625,
        1.0
      ],
      "min": [
        0.002197265625,
        0.012939453125
      ],
      "type": "VEC2"
    },
    {
      "bufferView": 1,
      "byteOffset": 1572768,
      "componentType": 5126,
      "count": 65532,
      "max": [
        0.994140625,
        1.0
      ],
      "min": [
        0.002197265625,
        0.012939453125
      ],
      "type": "VEC2"
    },
    {
      "bufferView": 0,
      "componentType": 5125,
      "count": 339273,
      "type": "SCALAR"
    },
    {
      "bufferView": 2,
      "byteOffset": 1572768,
      "componentType": 5126,
      "count": 65532,
      "max": [
        0.30059814453125,
        0.883758544921875,
        0.117156982421875
      ],
      "min": [
        -0.35028076171875,
        0.0069580078125,
        -0.35791015625
      ],
      "type": "VEC3"
    },
    {
      "bufferView": 2,
      "byteOffset": 2359152,
      "componentType": 5126,
      "count": 65532,
      "max": [
        0.9999696016311646,
        0.9999696016311646,
        0.9994764924049377
      ],
      "min": [
        -0.9999383687973022,
        -1.0,
        -0.999845564365387
      ],
      "type": "VEC3"
    },
    {
      "bufferView": 3,
      "byteOffset": 1048512,
      "componentType": 5126,
      "count": 65532,
      "max": [
        0.9999406933784485,
        0.9999990463256836,
        0.9999938607215881,
        1.0
      ],
      "min": [
        -0.999998152256012,
        -0.9998751878738403,
        -0.9999950528144836,
        -1.0
      ],
      "type": "VEC4"
    },
    {
      "bufferView": 1,
      "byteOffset": 2097024,
      "componentType": 5126,
      "count": 65532,
      "max": [
        0.998046875,
        0.99658203125
      ],
      "min": [
        0.0,
        0.0
      ],
      "type": "VEC2"
    },
    {
      "bufferView": 1,
      "byteOffset": 2621280,
      "componentType": 5126,
      "count": 65532,
      "max": [
        0.998046875,
        0.99658203125
      ],
      "min": [
        0.0,
        0.0
      ],
      "type": "VEC2"
    },
    {
      "bufferView": 1,
      "byteOffset": 3145536,
      "componentType": 5126,
      "count": 65532,
      "max": [
        0.998046875,
        0.99658203125
      ],
      "min": [
        0.0,
        0.0
      ],
      "type": "VEC2"
    },
    {
      "bufferView": 1,
      "byteOffset": 3669792,
      "componentType": 5126,
      "count": 65532,
      "max": [
        0.998046875,
        0.99658203125
      ],
      "min": [
        0.0,
        0.0
      ],
      "type": "VEC2"
    },
    {
      "bufferView": 0,
      "byteOffset": 1357092,
      "componentType": 5125,
      "count": 317418,
      "type": "SCALAR"
    },
    {
      "bufferView": 2,
      "byteOffset": 3145536,
      "componentType": 5126,
      "count": 65532,
      "max": [
        0.35040283203125,
        0.88775634765625,
        0.3330078125
      ],
      "min": [
        -0.333709716796875,
        0.0,
        -0.231048583984375
      ],
      "type": "VEC3"
    },
    {
      "bufferView": 2,
      "byteOffset": 3931920,
      "componentType": 5126,
      "count": 65532,
      "max": [
        0.9999688863754272,
        1.0,
        0.9999375939369202
      ],
      "min": [
        -0.9998751878738403,
        -0.9999696016311646,
        -0.9994428753852844
      ],
      "type": "VEC3"
    },
    {
      "bufferView": 3,
      "byteOffset": 2097024,
      "componentType": 5126,
      "count": 65532,
      "max": [
        0.9999593496322632,
        0.99993497133255,
        0.9999663233757019,
        1.0
      ],
      "min": [
        -0.9999706745147705,
        -0.9999632239341736,
        -0.9999953508377075,
        -1.0
      ],
      "type": "VEC4"
    },
    {
      "bufferView": 1,
      "byteOffset": 4194048,
      "componentType": 5126,
      "count": 65532,
      "max": [
        0.998046875,
        0.999755859375
      ],
      "min": [
        0.00048828125,
        0.0
      ],
      "type": "VEC2"
    },
    {
      "bufferView": 1,
      "byteOffset": 4718304,
      "componentType": 5126,
      "count": 65532,
      "max": [
        0.998046875,
        0.999755859375
      ],
      "min": [
        0.00048828125,
        0.0
      ],
      "type": "VEC2"
    },
    {
      "bufferView": 1,
      "byteOffset": 5242560,
      "componentType": 5126,
      "count": 65532,
      "max": [
        0.998046875,
        0.999755859375
      ],
      "min": [
        0.00048828125,
        0.0
      ],
      "type": "VEC2"
    },
    {
      "bufferView": 1,
      "byteOffset": 5766816,
      "componentType": 5126,
      "count": 65532,
      "max": [
        0.998046875,
        0.999755859375
      ],
      "min": [
        0.00048828125,
        0.0
      ],
      "type": "VEC2"
    },
    {
      "bufferView": 0,
      "byteOffset": 2626764,
      "componentType": 5125,
      "count": 315693,
      "type": "SCALAR"
    },
    {
      "bufferView": 2,
      "byteOffset": 4718304,
      "componentType": 5126,
      "count": 65532,
      "max": [
        0.329376220703125,
        0.88775634765625,
        0.489959716796875
      ],
      "min": [
        -0.191253662109375,
        0.000244140625,
        -0.0176239013671875
      ],
      "type": "VEC3"
    },
    {
      "bufferView": 2,
      "byteOffset": 5504688,
      "componentType": 5126,
      "count": 65532,
      "max": [
        0.9999688863754272,
        1.0,
        0.9999375939369202
      ],
      "min": [
        -0.9999688863754272,
        -1.0,
        -0.9998448491096497
      ],
      "type": "VEC3"
    },
    {
      "bufferView": 3,
      "byteOffset": 3145536,
      "componentType": 5126,
      "count": 65532,
      "max": [
        0.9999978542327881,
        0.9998243451118469,
        0.9999987483024597,
        1.0
      ],
      "min": [
        -0.9999696612358093,
        -0.9998236894607544,
        -0.9999944567680359,
        -1.0
      ],
      "type": "VEC4"
    },
    {
      "bufferView": 1,
      "byteOffset": 6291072,
      "componentType": 5126,
      "count": 65532,
      "max": [
        0.999755859375,
        0.998779296875
      ],
      "min": [
        0.0,
        0.011962890625
      ],
      "type": "VEC2"
    },
    {
      "bufferView": 1,
      "byteOffset": 6815328,
      "componentType": 5126,
      "count": 65532,
      "max": [
        0.999755859375,
        0.998779296875
      ],
      "min": [
        0.0,
        0.011962890625
      ],
      "type": "VEC2"
    },
    {
      "bufferView": 1,
      "byteOffset": 7339584,
      "componentType": 5126,
      "count": 65532,
      "max": [
        0.999755859375,
        0.998779296875
      ],
      "min": [
        0.0,
        0.011962890625
      ],
      "type": "VEC2"
    },
    {
      "bufferView": 1,
      "byteOffset": 7863840,
      "componentType": 5126,
      "count": 65532,
      "max": [
        0.999755859375,
        0.998779296875
      ],
      "min": [
        0.0,
        0.011962890625
      ],
      "type": "VEC2"
    },
    {
      "bufferView": 0,
      "byteOffset": 3889536,
      "componentType": 5125,
      "count": 333657,
      "type": "SCALAR"
    },
    {
      "bufferView": 2,
      "byteOffset": 6291072,
      "componentType": 5126,
      "count": 31293,
      "max": [
        0.331756591796875,
        0.88458251953125,
        0.12142181396484375
      ],
      "min": [
        -0.250030517578125,
        0.0,
        -0.2054595947265625
      ],
      "type": "VEC3"
    },
    {
      "bufferView": 2,
      "byteOffset": 6666588,
      "componentType": 5126,
      "count": 31293,
      "max": [
        1.0,
        0.9999688863754272,
        0.999845564365387
      ],
      "min": [
        -1.0,
        -1.0,
        -0.999846339225769
      ],
      "type": "VEC3"
    },
    {
      "bufferView": 3,
      "byteOffset": 4194048,
      "componentType": 5126,
      "count": 31293,
      "max": [
        0.9999462962150574,
        0.9999977350234985,
        0.9999770522117615,
        1.0
      ],
      "min": [
        -0.999998152256012,
        -0.9999989867210388,
        -0.9999696016311646,
        -1.0
      ],
      "type": "VEC4"
    },
    {
      "bufferView": 1,
      "byteOffset": 8388096,
      "componentType": 5126,
      "count": 31293,
      "max": [
        1.0,
        1.0
      ],
      "min": [
        0.000244140625,
        0.0
      ],
      "type": "VEC2"
    },
    {
      "bufferView": 1,
      "byteOffset": 8638440,
      "componentType": 5126,
      "count": 31293,
      "max": [
        1.0,
        1.0
      ],
      "min": [
        0.000244140625,
        0.0
      ],
      "type": "VEC2"
    },
    {
      "bufferView": 1,
      "byteOffset": 8888784,
      "componentType": 5126,
      "count": 31293,
      "max": [
        1.0,
        1.0
      ],
      "min": [
        0.000244140625,
        0.0
      ],
      "type": "VEC2"
    },
    {
      "bufferView": 1,
      "byteOffset": 9139128,
      "componentType": 5126,
      "count": 31293,
      "max": [
        1.0,
        1.0
      ],
      "min": [
        0.000244140625,
        0.0
      ],
      "type": "VEC2"
    },
    {
      "bufferView": 0,
      "byteOffset": 5224164,
      "componentType": 5125,
      "count": 140085,
      "type": "SCALAR"
    }
  ],
  "asset": {
    "extras": {
      "author": "Galaxy Abundant (https://sketchfab.com/galaxyabundant)",
      "license": "CC-BY-4.0 (http://creativecommons.org/licenses/by/4.0/)",
      "source": "https://sketchfab.com/3d-models/ga-free-401-single-lotus-flower-cluster--tt-5e3a33b1f4694ebe8a476b72aca36eb8",
      "title": "GA Free_401_Single Lotus Flower Cluster _Tt"
    },
    "generator": "Sketchfab-0.6.0",
    "version": "2.0"
  },
  "bufferViews": [
    {
      "buffer": 0,
      "byteLength": 5784504,
      "name": "floatBufferViews",
      "target": 34963
    },
    {
      "buffer": 0,
      "byteLength": 9389472,
      "byteOffset": 5784504,
      "byteStride": 8,
      "name": "floatBufferViews",
      "target": 34962
    },
    {
      "buffer": 0,
      "byteLength": 7042104,
      "byteOffset": 15173976,
      "byteStride": 12,
      "name": "floatBufferViews",
      "target": 34962
    },
    {
      "buffer": 0,
      "byteLength": 4694736,
      "byteOffset": 22216080,
      "byteStride": 16,
      "name": "floatBufferViews",
      "target": 34962
    }
  ],
  "buffers": [
    {
      "byteLength": 26910816,
      "uri": "scene.bin"
    }
  ],
  "extensionsRequired": [
    "KHR_materials_pbrSpecularGlossiness"
  ],
  "extensionsUsed": [
    "KHR_materials_pbrSpecularGlossiness"
  ],
  "images": [
    {
      "uri": "textures/tripo_mat_4d143c01-ce99-4f68-90f5-6c3b05325d50_diffuse.jpeg"
    },
    {
      "uri": "textures/tripo_mat_4d143c01-ce99-4f68-90f5-6c3b05325d50_specularGlossiness.png"
    },
    {
      "uri": "textures/tripo_mat_4d143c01-ce99-4f68-90f5-6c3b05325d50_normal.jpeg"
    }
  ],
  "materials": [
    {
      "extensions": {
        "KHR_materials_pbrSpecularGlossiness": {
          "diffuseFactor": [
            1.0,
            1.0,
            1.0,
            1.0
          ],
          "diffuseTexture": {
            "index": 0
          },
          "glossinessFactor": 1.0,
          "specularFactor": [
            1.0,
            1.0,
            1.0
          ],
          "specularGlossinessTexture": {
            "index": 1,
            "texCoord": 1
          }
        }
      },
      "name": "tripo_mat_4d143c01-ce99-4f68-90f5-6c3b05325d50",
      "normalTexture": {
        "index": 2,
        "texCoord": 2
      }
    }
  ],
  "meshes": [
    {
      "name": "Object_0",
      "primitives": [
        {
          "attributes": {
            "NORMAL": 1,
            "POSITION": 0,
            "TANGENT": 2,
            "TEXCOORD_0": 3,
            "TEXCOORD_1": 4,
            "TEXCOORD_2": 5,
            "TEXCOORD_3": 6
          },
          "indices": 7,
          "material": 0,
          "mode": 4
        }
      ]
    },
    {
      "name": "Object_1",
      "primitives": [
        {
          "attributes": {
            "NORMAL": 9,
            "POSITION": 8,
            "TANGENT": 10,
            "TEXCOORD_0": 11,
            "TEXCOORD_1": 12,
            "TEXCOORD_2": 13,
            "TEXCOORD_3": 14
          },
          "indices": 15,
          "material": 0,
          "mode": 4
        }
      ]
    },
    {
      "name": "Object_2",
      "primitives": [
        {
          "attributes": {
            "NORMAL": 17,
            "POSITION": 16,
            "TANGENT": 18,
            "TEXCOORD_0": 19,
            "TEXCOORD_1": 20,
            "TEXCOORD_2": 21,
            "TEXCOORD_3": 22
          },
          "indices": 23,
          "material": 0,
          "mode": 4
        }
      ]
    },
    {
      "name": "Object_3",
      "primitives": [
        {
          "attributes": {
            "NORMAL": 25,
            "POSITION": 24,
            "TANGENT": 26,
            "TEXCOORD_0": 27,
            "TEXCOORD_1": 28,
            "TEXCOORD_2": 29,
            "TEXCOORD_3": 30
          },
          "indices": 31,
          "material": 0,
          "mode": 4
        }
      ]
    },
    {
      "name": "Object_4",
      "primitives": [
        {
          "attributes": {
            "NORMAL": 33,
            "POSITION": 32,
            "TANGENT": 34,
            "TEXCOORD_0": 35,
            "TEXCOORD_1": 36,
            "TEXCOORD_2": 37,
            "TEXCOORD_3": 38
          },
          "indices": 39,
          "material": 0,
          "mode": 4
        }
      ]
    }
  ],
  "nodes": [
    {
      "children": [
        1
      ],
      "matrix": [
        1.0,
        0.0,
        0.0,
        0.0,
        0.0,
        2.220446049250313e-16,
        -1.0,
        0.0,
        0.0,
        1.0,
        2.220446049250313e-16,
        0.0,
        0.0,
        0.0,
        0.0,
        1.0
      ],
      "name": "Sketchfab_model"
    },
    {
      "children": [
        2
      ],
      "name": "root"
    },
    {
      "children": [
        3
      ],
      "matrix": [
        1.0,
        0.0,
        0.0,
        0.0,
        0.0,
        2.220446049250313e-16,
        1.0,
        0.0,
        0.0,
        -1.0,
        2.220446049250313e-16,
        0.0,
        0.0,
        0.0,
        0.0,
        1.0
      ],
      "name": "GLTF_SceneRootNode"
    },
    {
      "children": [
        4,
        5,
        6,
        7,
        8
      ],
      "name": "tripo_node_4d143c01-ce99-4f68-90f5-6c3b05325d50_0"
    },
    {
      "mesh": 0,
      "name": "Object_4"
    },
    {
      "mesh": 1,
      "name": "Object_5"
    },
    {
      "mesh": 2,
      "name": "Object_6"
    },
    {
      "mesh": 3,
      "name": "Object_7"
    },
    {
      "mesh": 4,
      "name": "Object_8"
    }
  ],
  "samplers": [
    {
      "magFilter": 9729,
      "minFilter": 9987,
      "wrapS": 10497,
      "wrapT": 10497
    }
  ],
  "scene": 0,
  "scenes": [
    {
      "name": "Sketchfab_Scene",
      "nodes": [
        0
      ]
    }
  ],
  "textures": [
    {
      "sampler": 0,
      "source": 0
    },
    {
      "sampler": 0,
      "source": 1
    },
    {
      "sampler": 0,
      "source": 2
    }
  ]
}
